<?xml version="1.0" encoding="UTF-8" standalone="no"?>
<!-- Created with Inkscape (http://www.inkscape.org/) -->

<svg
   width="512"
   height="512"
   viewBox="0 0 135.46666 135.46667"
   version="1.1"
   id="svg6125"
   inkscape:version="1.1.1 (3bf5ae0d25, 2021-09-20)"
   sodipodi:docname="Season 12.svg"
   xmlns:inkscape="http://www.inkscape.org/namespaces/inkscape"
   xmlns:sodipodi="http://sodipodi.sourceforge.net/DTD/sodipodi-0.dtd"
   xmlns="http://www.w3.org/2000/svg"
   xmlns:svg="http://www.w3.org/2000/svg">
  <sodipodi:namedview
     id="namedview6127"
     pagecolor="#ffffff"
     bordercolor="#000000"
     borderopacity="0.25"
     inkscape:pageshadow="2"
     inkscape:pageopacity="0.0"
     inkscape:pagecheckerboard="0"
     inkscape:document-units="px"
     showgrid="false"
     inkscape:zoom="0.64504646"
     inkscape:cx="248.81929"
     inkscape:cy="261.2215"
     inkscape:window-width="1366"
     inkscape:window-height="697"
     inkscape:window-x="-8"
     inkscape:window-y="-8"
     inkscape:window-maximized="1"
     inkscape:current-layer="layer1"
     inkscape:object-nodes="false"
     units="px" />
  <defs
     id="defs6122" />
  <g
     inkscape:label="Layer 1"
     inkscape:groupmode="layer"
     id="layer1">
    <g
       id="g39239"
       transform="matrix(1.3447639,0,0,1.3447639,-88.410694,-65.022276)">
      <path
         style="fill:#273839;fill-opacity:1;stroke:none;stroke-width:0.264583"
         d="m 141.16847,82.402319 -4.26719,9.931831 c -0.91089,2.067548 -1.35033,2.047226 -1.79462,2.048399 1.1063,-1.240898 0.93222,-2.055 0.1994,-2.682859 -4.69127,-3.50243 -2.23065,-6.216596 -1.64959,-10.658935 0.60296,-4.788741 -4.75917,-6.024713 -0.3988,-11.275269 -1.07316,7.223178 1.78981,5.400008 3.71612,8.483642 0.43046,0.629018 1.13738,2.373453 0.81574,5.057556 1.46463,-1.060191 2.44727,-2.308988 0.61633,-4.658752 0.92087,0.610881 1.84174,0.620164 2.76261,3.754387 z"
         id="path32651-8"
         sodipodi:nodetypes="cccccccccc" />
      <path
         style="fill:#273839;fill-opacity:1;stroke:none;stroke-width:0.264583"
         d="m 128.63244,62.713816 c 2.64188,2.05267 -0.49592,3.693086 1.25617,8.126635 -3.88716,-5.147873 -0.033,-3.078109 -1.25617,-8.126635 z"
         id="path34757-8"
         sodipodi:nodetypes="ccc" />
      <path
         id="path10946"
         style="fill:#273839;fill-opacity:1;stroke:none;stroke-width:0.999999"
         d="m 567.49805,247.36523 -58.58203,138.77539 -1.3711,-29.73437 -23.43164,81.25586 -8.46875,-17.24609 -16.18164,77.60937 33.52539,-38.27148 v -6.10352 l 97.37695,-102.70703 14.04883,13.66211 -13.75976,13.75781 -8.42969,-8.71875 -79.0625,83.42383 v 14.92187 l -54.16406,59.78125 -0.0957,2.03516 83.42383,-72.95898 v -21.22071 l 44.37695,-46.89453 13.75782,14.14649 38.75781,-38.3711 -38.56445,-40.11328 -26.54688,27.13086 -7.75195,-7.55859 -0.0977,-30.90821 -12.20703,58.7168 -11.53125,14.92188 z m -36.14063,143.99219 a 6.6752561,6.6752561 0 0 1 6.67578,6.67578 6.6752561,6.6752561 0 0 1 -6.67578,6.67578 6.6752561,6.6752561 0 0 1 -6.67578,-6.67578 6.6752561,6.6752561 0 0 1 6.67578,-6.67578 z m -18.79687,19.2832 a 6.6752562,6.6752562 0 0 1 6.67383,6.67383 6.6752562,6.6752562 0 0 1 -6.67383,6.67578 6.6752562,6.6752562 0 0 1 -6.67578,-6.67578 6.6752562,6.6752562 0 0 1 6.67578,-6.67383 z m -17.98633,19.64063 a 6.6752563,6.6752563 0 0 1 6.67383,6.67383 6.6752563,6.6752563 0 0 1 -6.67383,6.67578 6.6752563,6.6752563 0 0 1 -6.67578,-6.67578 6.6752563,6.6752563 0 0 1 6.67578,-6.67383 z"
         transform="scale(0.26458333)" />
      <path
         id="path10946-4"
         style="fill:#273839;fill-opacity:1;stroke:none;stroke-width:0.264583"
         d="m 82.074689,65.450006 15.499834,36.717654 0.36277,-7.867221 6.199627,21.498951 2.24069,-4.56303 4.28139,20.53415 -8.87027,-10.126 v -1.61489 l -25.764311,-27.174571 -3.71709,3.61477 3.6406,3.640091 2.23036,-2.306841 20.918614,22.072561 v 3.94807 l 14.330917,15.81713 0.0253,0.53847 -22.07256,-19.30373 v -5.61465 l -11.741401,-12.40751 -3.64009,3.74292 -10.25467,-10.152351 10.20351,-10.613304 7.02386,7.178374 2.051038,-1.99988 0.02585,-8.177795 3.229777,15.535485 3.050976,3.948081 z m 9.562208,38.097934 a 1.7661615,1.7661615 0 0 0 -1.7663,1.7663 1.7661615,1.7661615 0 0 0 1.7663,1.7663 1.7661615,1.7661615 0 0 0 1.7663,-1.7663 1.7661615,1.7661615 0 0 0 -1.7663,-1.7663 z m 4.973336,5.10201 a 1.7661615,1.7661615 0 0 0 -1.765781,1.76579 1.7661615,1.7661615 0 0 0 1.765781,1.7663 1.7661615,1.7661615 0 0 0 1.7663,-1.7663 1.7661615,1.7661615 0 0 0 -1.7663,-1.76579 z m 4.758887,5.19659 a 1.7661615,1.7661615 0 0 0 -1.765787,1.76578 1.7661615,1.7661615 0 0 0 1.765787,1.7663 1.7661615,1.7661615 0 0 0 1.76631,-1.7663 1.7661615,1.7661615 0 0 0 -1.76631,-1.76578 z" />
      <path
         style="fill:#273839;fill-opacity:1;stroke:none;stroke-width:0.264583"
         d="m 116.2513,79.06165 -12.37393,22.14968 3.23768,3.29327 6.88843,-4.85749 h -4.53186 l 6.77968,-11.384607 6.77964,11.384607 h -4.56811 l 6.97906,4.85749 3.22669,-3.29327 z"
         id="path6231"
         sodipodi:nodetypes="ccccccccccc" />
      <path
         style="fill:#273839;fill-opacity:1;stroke:none;stroke-width:0.264583"
         d="m 114.87525,102.54429 c 3.26367,2.22924 6.84215,4.20364 8.74189,7.53701 -1.66895,3.63237 -4.61896,6.09507 -7.84463,8.30609 l -4.71704,-4.30686 1.35871,4.10177 3.71723,3.05069 5.07594,-4.30686 -5.25539,31.35292 c -1.82452,-12.90411 -4.22374,-25.89032 -6.71665,-38.88992 1.73263,2.38682 4.3851,5.47939 7.20373,5.6143 5.44963,0.0229 6.01009,-8.28496 1.05108,-8.20355 -2.23213,0.17447 -3.09644,1.15226 -3.17887,2.58925 -0.0611,0.29226 -0.0535,1.56936 1.02544,0.46144 2.5894,-2.15856 3.85846,3.82077 -0.0769,2.46107 -1.5933,-0.74152 -2.4462,-1.85323 -3.53778,-2.84561 1.02675,-2.09014 2.41457,-3.2174 3.84541,-4.22995 0.0247,-0.98239 -0.31282,-1.84407 -0.69217,-2.69179 z"
         id="path6233"
         sodipodi:nodetypes="ccccccccccccccccc" />
      <path
         style="fill:#273839;fill-opacity:1;stroke:none;stroke-width:0.264583"
         d="m 102.81878,96.026508 c 1.51619,0.03537 2.90173,-1.616347 2.78376,-3.303918 -0.13996,-2.00206 -1.59035,-4.354394 -1.16118,-5.098491 l 2.43543,1.461256 9.37451,-16.868536 9.33982,16.765992 2.38416,-1.333077 c 0.54491,1.217839 -1.20664,3.515705 -0.87924,5.615489 0.16127,1.034298 0.92949,2.571711 2.51995,2.805962 3.47181,0.102764 1.65253,-5.885641 -1.01263,-2.602061 -0.83607,-2.066923 1.75412,-2.736904 2.21752,-8.844445 0.0824,-2.706868 -1.09666,-4.396731 -2.07652,-7.716459 -0.1681,2.078182 0.27484,4.369741 -2.79433,5.434848 0.86375,-2.373865 1.39373,-4.593723 1.0705,-6.321492 -1.01706,-6.383395 -2.2835,-1.670457 -2.22412,-9.59851 -0.97425,0.756293 -1.6326,2.116924 -0.41018,7.075556 0.52788,3.268053 -3.74224,2.476945 -3.58905,-0.640903 -0.19541,-4.122527 2.34002,-5.878699 2.71742,-10.280065 0.0738,-4.642067 -3.38371,-3.689049 -3.05069,-8.48554 -1.74129,4.268935 0.69546,3.441267 0.84599,7.71646 0.003,1.385535 -0.32298,3.387638 -2.28161,5.357939 0.15067,-1.734629 -0.0246,-3.414942 -0.69345,-5.012978 0.0759,1.573043 0.47357,3.06375 -2.08354,5.295046 -2.1385,-1.501334 -2.19176,-3.392231 -2.18902,-5.295046 -1.24023,2.702177 0.13459,4.543347 -0.64436,4.953294 -1.6505,-1.426232 -2.00186,-3.285511 -2.24107,-5.182175 -0.15788,-3.314468 2.32045,-3.650289 1.011,-7.633783 0.0361,4.715487 -2.71996,2.5758 -3.03036,8.100071 -0.0369,4.30188 2.53162,5.806845 2.54151,10.08829 -0.11334,4.734905 -4.85059,3.955946 -3.46294,0.03114 0.82975,-2.818805 0.68367,-4.889473 -0.53735,-6.136016 0.86843,5.594521 -2.34248,5.759888 -2.13839,10.916636 0.0661,2.34266 0.66452,2.544922 0.82792,4.242013 0.10003,0.702939 0.0208,1.104671 -0.70672,0.434734 -1.54785,-1.306336 -2.05986,-2.194191 -1.89202,-4.907346 -1.88307,4.285847 -2.52114,8.429408 -1.02587,12.329158 0.50689,1.497514 2.59374,3.800552 0.83034,4.14817 -1.82535,-3.336138 -4.404005,2.377637 -0.77519,2.488787 z"
         id="path11145"
         sodipodi:nodetypes="cscccccscccccccccccccccccccccccccccccc" />
      <path
         style="fill:#273839;fill-opacity:1;stroke:none;stroke-width:0.264583"
         d="m 91.264421,82.44561 4.267195,9.931831 c 0.91089,2.067548 1.350326,2.047226 1.794616,2.048399 -1.106302,-1.240898 -0.932217,-2.055 -0.199401,-2.682859 4.691279,-3.50243 2.230649,-6.216596 1.649595,-10.658935 -0.602957,-4.788741 4.759164,-6.024713 0.398804,-11.275269 1.07316,7.223178 -1.789817,5.400008 -3.716126,8.483642 -0.430455,0.629018 -1.137377,2.373453 -0.815734,5.057556 -1.464635,-1.060191 -2.447274,-2.308988 -0.616334,-4.658752 -0.920872,0.610881 -1.841743,0.620164 -2.762615,3.754387 z"
         id="path32651"
         sodipodi:nodetypes="cccccccccc" />
      <path
         style="fill:#273839;fill-opacity:1;stroke:none;stroke-width:0.264583"
         d="m 103.80046,62.757107 c -2.64188,2.05267 0.49592,3.693086 -1.25617,8.126635 3.88715,-5.147873 0.033,-3.078109 1.25617,-8.126635 z"
         id="path34757"
         sodipodi:nodetypes="ccc" />
      <path
         style="fill:#273839;fill-opacity:1;stroke:none;stroke-width:0.264583"
         d="m 117.03076,49.16162 c 1.41393,4.966921 -5.28141,4.74703 -1.41394,9.680054 0.38565,0.773128 -0.37221,2.198493 0.61633,2.827882 -0.17091,-1.84173 2.25897,-1.729773 2.2478,-3.84302 -0.20729,-2.699983 -1.56229,-2.797134 -1.30517,-3.734252 1.37916,-3.138701 0.19835,-4.122436 -0.14502,-4.930664 z"
         id="path35988"
         sodipodi:nodetypes="cccccc" />
    </g>
  </g>
</svg>
