<?xml version="1.0" encoding="UTF-8" standalone="no"?>
<!-- Created with Inkscape (http://www.inkscape.org/) -->

<svg
   width="512"
   height="512"
   viewBox="0 0 135.46666 135.46666"
   version="1.1"
   id="svg18838"
   sodipodi:docname="Season 13 Icon.svg"
   inkscape:version="1.1.1 (3bf5ae0d25, 2021-09-20)"
   xmlns:inkscape="http://www.inkscape.org/namespaces/inkscape"
   xmlns:sodipodi="http://sodipodi.sourceforge.net/DTD/sodipodi-0.dtd"
   xmlns="http://www.w3.org/2000/svg"
   xmlns:svg="http://www.w3.org/2000/svg">
  <sodipodi:namedview
     id="namedview18840"
     pagecolor="#ffffff"
     bordercolor="#666666"
     borderopacity="1.0"
     inkscape:pageshadow="2"
     inkscape:pageopacity="0.0"
     inkscape:pagecheckerboard="0"
     inkscape:document-units="px"
     showgrid="false"
     inkscape:zoom="0.45611672"
     inkscape:cx="-36.174951"
     inkscape:cy="69.06127"
     inkscape:window-width="1366"
     inkscape:window-height="697"
     inkscape:window-x="-8"
     inkscape:window-y="-8"
     inkscape:window-maximized="1"
     inkscape:current-layer="layer1"
     units="px"
     width="512px" />
  <defs
     id="defs18835" />
  <g
     inkscape:label="Layer 1"
     inkscape:groupmode="layer"
     id="layer1">
    <g
       id="g34742"
       transform="matrix(1.04918,0,0,1.0491792,-0.51925203,-3.331144)">
      <g
         id="g33778"
         style="fill:#273839;fill-opacity:1;stroke:none"
         transform="matrix(1.7765456,0,0,1.7765456,-98.200051,-99.621258)">
        <path
           style="fill:#273839;fill-opacity:1;stroke:none;stroke-width:0.264583px;stroke-linecap:butt;stroke-linejoin:miter;stroke-opacity:1"
           d="m 73.778686,97.598144 c -0.814891,-0.25466 -1.626781,-0.513987 -2.141117,-1.236176 L 71.34961,79.253 73.180481,77.422 v 4.514 l 2.655668,-2.656 v -4.486 l 2.336851,-2.337 4.1e-4,12.45 5.13552,-5.136 V 67.346 l 2.657488,-2.658 v 4.196 l 2.789999,-2.79 v -4.337 l 3.894583,-3.894 3.868816,3.894 v 4.337 l 2.781514,2.79 v -4.196 l 2.76229,2.658 v 12.425 l 5.02146,5.136 -8e-5,-12.45 2.44673,2.337 v 4.486 l 2.53076,2.656 v -4.514 l 1.94319,1.831 -0.2016,16.858694 c -0.68924,0.907061 -1.49705,1.2924 -2.35657,1.450194 0.76225,-3.65508 0.41285,-7.501464 0.61633,-11.320888 l -2.46533,-2.601 v 7.088 L 99.120848,80.631 V 73.235 L 92.651,66.51 85.851562,73.235 v 7.396 L 75.754576,90.728 V 83.64 l -2.601286,2.601 c 0.20133,3.783575 -0.01271,7.448775 0.625396,11.357144 z"
           id="path18944"
           sodipodi:nodetypes="ccccccccccccccccccccccccccccccccccccccccccc" />
        <path
           id="path21658"
           style="fill:#273839;fill-opacity:1;stroke:none;stroke-width:0.999999px;stroke-linecap:butt;stroke-linejoin:miter;stroke-opacity:1"
           d="m 350.17773,266.10547 -15.83398,15.48437 v 26.99414 L 286.17969,356.75 c -0.36851,15.76629 9.87527,19.34345 13.9082,25.55273 5.35426,5.65165 2.51248,13.37353 6.81836,18.02539 10.61702,9.71895 11.69425,11.92848 14.69531,15.95704 4.88714,7.32132 2.12643,14.15102 -0.82226,20.96679 -2.35968,5.76469 -4.48714,9.87608 -0.27539,13.83789 l 29.67382,21.78711 30.07032,-22.33398 c 6.87337,-7.97798 -11.29239,-21.39507 -1.39844,-35.26367 4.21799,-5.61313 7.77339,-7.85635 11.43359,-11.0293 7.87661,-7.70944 2.80581,-11.24851 7.50391,-21.24219 5.13037,-9.33896 15.85867,-8.10426 15.41016,-26.25781 l -48.42188,-48.16602 v -26.99414 z m 0,44.39648 43.08789,75.08985 -11.92187,12.94726 -25.34961,-18.56445 h 15.89453 l -21.71094,-36.86133 -21.86328,36.86133 h 15.89453 L 318.38086,398.53906 306.5957,385.5918 Z m 1.73829,77.25977 3.875,3.09961 c 0.64594,16.18099 -1.57496,66.24233 17.05273,47.08984 l 2.13281,5.91016 -23.0625,17.3457 z m -3.29688,0.002 v 73.44531 l -23.06055,-17.3457 2.13086,-5.91016 c 18.6277,19.1525 16.40679,-30.90885 17.05274,-47.08984 z"
           transform="scale(0.26458333)" />
        <g
           id="g33670"
           style="fill:#273839;fill-opacity:1;stroke:none">
          <path
             style="fill:#273839;fill-opacity:1;stroke:none;stroke-width:0.264583px;stroke-linecap:butt;stroke-linejoin:miter;stroke-opacity:1"
             d="m 68.397042,83.983776 c -4.086028,4.06224 -9.069052,10.921011 -2.276833,14.898664 1.301748,0.762328 3.98679,1.46182 5.045531,2.38005 1.463007,-2.544623 -2.195638,-3.594256 -3.076329,-4.0505 -7.243319,-2.828649 -2.859581,-8.159324 0.307631,-13.228214 z"
             id="path27061"
             sodipodi:nodetypes="csccc" />
          <path
             style="fill:#273839;fill-opacity:1;stroke:none;stroke-width:0.264583px;stroke-linecap:butt;stroke-linejoin:miter;stroke-opacity:1"
             d="m 61.218942,95.57128 c 0.152292,2.991018 -0.01619,6.58082 2.845606,8.76754 1.54127,1.24864 3.049904,-1.26801 0.965886,-1.82064 -2.811921,-0.76453 -2.901765,-4.291057 -3.811492,-6.9469 z"
             id="path27989"
             sodipodi:nodetypes="cccc" />
          <path
             id="path28803"
             style="fill:#273839;fill-opacity:1;stroke:none;stroke-width:0.999999px;stroke-linecap:butt;stroke-linejoin:miter;stroke-opacity:1"
             d="m 287.67383,378.36328 c 5.35568,13.3115 -5.90729,13.9633 -14.14649,9.98047 -6.54962,-3.49572 -13.40189,-6.64989 -21.99414,-7.84766 l -2.32617,3.875 c 11.58837,8.34641 1.7273,19.63285 -7.75195,13.95313 l 9.49609,12.69336 h 5.23242 l 9.88282,8.62304 c 7.12238,2.11046 3.89962,11.15679 7.55664,13.56446 3.49313,1.80782 13.96997,3.01622 17.15039,27.32422 9.74035,9.76849 21.92238,14.92366 33.91211,20.44336 -9.9431,-6.75844 -19.58464,-13.52924 -23.44727,-20.54102 -0.58693,-3.22976 -2.43255,-6.4597 -4.55469,-9.68945 l 1.25977,-10.65821 c -7.42768,-4.75842 -15.21179,-9.54004 -18.89453,-14.04882 h 4.36133 c 3.20513,2.05077 4.75551,-4.45905 7.46093,0 1.17348,2.57843 6.7714,1.54284 8.52539,0 3.02697,-2.50696 3.90821,-1.41789 4.36133,0 1.05444,3.06962 1.62581,6.31153 1.74414,9.78711 l 3.77735,-9.78711 c 1.50973,-3.47244 2.84355,-2.17172 3.77929,0 1.42719,3.76788 2.15932,9.6364 2.22852,14.82422 3.18591,-8.95786 7.41916,-19.8536 -0.87109,-28.19532 -5.15267,-4.38746 -13.73514,-7.7682 -15.50391,-21.21875 -0.21827,-8.60594 -6.24947,-9.50112 -11.23828,-13.08203 z m -16.95703,22.67383 a 2.5191983,2.3738601 0 0 1 2.51953,2.37305 2.5191983,2.3738601 0 0 1 -2.51953,2.375 2.5191983,2.3738601 0 0 1 -2.51953,-2.375 2.5191983,2.3738601 0 0 1 2.51953,-2.37305 z m 11.91992,1.25977 c 0.0422,-7.1e-4 0.0847,-2.2e-4 0.12695,0 2.70234,0.0137 5.42692,1.90072 5.58789,5.61914 0.83359,7.29547 -11.67597,6.96393 -11.04687,0 0.0742,-3.71423 2.67318,-5.57499 5.33203,-5.61914 z m 10.90625,10.92187 c 0.0299,-7.3e-4 0.0597,-2.6e-4 0.0898,0 0.75461,0.007 1.57372,0.32569 2.27539,1.0918 2.43414,3.20836 -0.76178,4.97909 -3.68164,2.81054 -1.98917,-1.85651 -0.56792,-3.85623 1.31641,-3.90234 z"
             transform="scale(0.26458333)" />
          <path
             style="fill:#273839;fill-opacity:1;stroke:none;stroke-width:0.264583px;stroke-linecap:butt;stroke-linejoin:miter;stroke-opacity:1"
             d="m 80.812134,117.64709 c -1.594539,-1.08858 -1.365655,2.35896 -0.07251,3.04541 4.705863,2.28314 8.104102,5.57215 10.296387,9.78882 -1.669805,-4.35574 -4.835001,-9.05 -10.223877,-12.83423 z"
             id="path32239"
             sodipodi:nodetypes="cccc" />
          <path
             style="fill:#273839;fill-opacity:1;stroke:none;stroke-width:0.264583px;stroke-linecap:butt;stroke-linejoin:miter;stroke-opacity:1"
             d="m 72.799804,98.921447 c 0.386696,0.821775 -0.110311,1.781773 -0.471313,2.374693 3.651602,2.90963 4.36701,-1.56224 0.471313,-2.374693 z"
             id="path32787"
             sodipodi:nodetypes="ccc" />
        </g>
        <g
           id="g33762"
           transform="matrix(-1,0,0,1,185.2537,0.06025134)"
           style="fill:#273839;fill-opacity:1;stroke:none">
          <path
             style="fill:#273839;fill-opacity:1;stroke:none;stroke-width:0.264583px;stroke-linecap:butt;stroke-linejoin:miter;stroke-opacity:1"
             d="m 68.397042,83.983776 c -4.086028,4.06224 -9.069052,10.921011 -2.276833,14.898664 1.301748,0.762328 3.98679,1.46182 5.045531,2.38005 1.463007,-2.544623 -2.195638,-3.594256 -3.076329,-4.0505 -7.243319,-2.828649 -2.859581,-8.159324 0.307631,-13.228214 z"
             id="path33752"
             sodipodi:nodetypes="csccc" />
          <path
             style="fill:#273839;fill-opacity:1;stroke:none;stroke-width:0.264583px;stroke-linecap:butt;stroke-linejoin:miter;stroke-opacity:1"
             d="m 61.218942,95.57128 c 0.152292,2.991018 -0.01619,6.58082 2.845606,8.76754 1.54127,1.24864 3.049904,-1.26801 0.965886,-1.82064 -2.811921,-0.76453 -2.901765,-4.291057 -3.811492,-6.9469 z"
             id="path33754"
             sodipodi:nodetypes="cccc" />
          <path
             id="path33756"
             style="fill:#273839;fill-opacity:1;stroke:none;stroke-width:0.999999px;stroke-linecap:butt;stroke-linejoin:miter;stroke-opacity:1"
             d="m 287.67383,378.36328 c 5.35568,13.3115 -5.90729,13.9633 -14.14649,9.98047 -6.54962,-3.49572 -13.40189,-6.64989 -21.99414,-7.84766 l -2.32617,3.875 c 11.58837,8.34641 1.7273,19.63285 -7.75195,13.95313 l 9.49609,12.69336 h 5.23242 l 9.88282,8.62304 c 7.12238,2.11046 3.89962,11.15679 7.55664,13.56446 3.49313,1.80782 13.96997,3.01622 17.15039,27.32422 9.74035,9.76849 21.92238,14.92366 33.91211,20.44336 -9.9431,-6.75844 -19.58464,-13.52924 -23.44727,-20.54102 -0.58693,-3.22976 -2.43255,-6.4597 -4.55469,-9.68945 l 1.25977,-10.65821 c -7.42768,-4.75842 -15.21179,-9.54004 -18.89453,-14.04882 h 4.36133 c 3.20513,2.05077 4.75551,-4.45905 7.46093,0 1.17348,2.57843 6.7714,1.54284 8.52539,0 3.02697,-2.50696 3.90821,-1.41789 4.36133,0 1.05444,3.06962 1.62581,6.31153 1.74414,9.78711 l 3.77735,-9.78711 c 1.50973,-3.47244 2.84355,-2.17172 3.77929,0 1.42719,3.76788 2.15932,9.6364 2.22852,14.82422 3.18591,-8.95786 7.41916,-19.8536 -0.87109,-28.19532 -5.15267,-4.38746 -13.73514,-7.7682 -15.50391,-21.21875 -0.21827,-8.60594 -6.24947,-9.50112 -11.23828,-13.08203 z m -16.95703,22.67383 a 2.5191983,2.3738601 0 0 1 2.51953,2.37305 2.5191983,2.3738601 0 0 1 -2.51953,2.375 2.5191983,2.3738601 0 0 1 -2.51953,-2.375 2.5191983,2.3738601 0 0 1 2.51953,-2.37305 z m 11.91992,1.25977 c 0.0422,-7.1e-4 0.0847,-2.2e-4 0.12695,0 2.70234,0.0137 5.42692,1.90072 5.58789,5.61914 0.83359,7.29547 -11.67597,6.96393 -11.04687,0 0.0742,-3.71423 2.67318,-5.57499 5.33203,-5.61914 z m 10.90625,10.92187 c 0.0299,-7.3e-4 0.0597,-2.6e-4 0.0898,0 0.75461,0.007 1.57372,0.32569 2.27539,1.0918 2.43414,3.20836 -0.76178,4.97909 -3.68164,2.81054 -1.98917,-1.85651 -0.56792,-3.85623 1.31641,-3.90234 z"
             transform="scale(0.26458333)" />
          <path
             style="fill:#273839;fill-opacity:1;stroke:none;stroke-width:0.264583px;stroke-linecap:butt;stroke-linejoin:miter;stroke-opacity:1"
             d="m 80.812134,117.64709 c -1.594539,-1.08858 -1.365655,2.35896 -0.07251,3.04541 4.705863,2.28314 8.104102,5.57215 10.296387,9.78882 -1.669805,-4.35574 -4.835001,-9.05 -10.223877,-12.83423 z"
             id="path33758"
             sodipodi:nodetypes="cccc" />
          <path
             style="fill:#273839;fill-opacity:1;stroke:none;stroke-width:0.264583px;stroke-linecap:butt;stroke-linejoin:miter;stroke-opacity:1"
             d="m 72.799804,98.921447 c 0.386696,0.821775 -0.110311,1.781773 -0.471313,2.374693 3.651602,2.90963 4.36701,-1.56224 0.471313,-2.374693 z"
             id="path33760"
             sodipodi:nodetypes="ccc" />
        </g>
      </g>
    </g>
  </g>
</svg>
