<?xml version="1.0" encoding="UTF-8"?>
<!DOCTYPE svg PUBLIC "-//W3C//DTD SVG 1.1//EN" "http://www.w3.org/Graphics/SVG/1.1/DTD/svg11.dtd">
<!-- Creator: CorelDRAW X8 -->
<svg xmlns="http://www.w3.org/2000/svg" xml:space="preserve" width="512px" height="512px" version="1.1" style="shape-rendering:geometricPrecision; text-rendering:geometricPrecision; image-rendering:optimizeQuality; fill-rule:evenodd; clip-rule:evenodd"
viewBox="0 0 512 512"
 xmlns:xlink="http://www.w3.org/1999/xlink"
 xmlns:dc="http://purl.org/dc/elements/1.1/"
 xmlns:cc="http://creativecommons.org/ns#"
 xmlns:rdf="http://www.w3.org/1999/02/22-rdf-syntax-ns#"
 xmlns:svg="http://www.w3.org/2000/svg"
 xmlns:sodipodi="http://sodipodi.sourceforge.net/DTD/sodipodi-0.dtd"
 xmlns:inkscape="http://www.inkscape.org/namespaces/inkscape"
 inkscape:version="0.92.4 (5da689c313, 2019-01-14)"
 sodipodi:docname="Season 1.svg">
 <defs>
  <style type="text/css">
   <![CDATA[
    .fil0 {fill:#2B3B3C}
   ]]>
  </style>
 </defs>
 <g id="Layer_x0020_1">
  <metadata id="CorelCorpID_0Corel-Layer"/>
  <sodipodi:namedview id="base" pagecolor="#ffffff" bordercolor="#666666" borderopacity="1.0" inkscape:pageopacity="0.0" inkscape:pageshadow="2" inkscape:zoom="1.4" inkscape:cx="27.322611" inkscape:cy="165.41811" inkscape:document-units="mm" inkscape:current-layer="layer3" showgrid="false" inkscape:window-width="1366" inkscape:window-height="705" inkscape:window-x="-8" inkscape:window-y="-8" inkscape:window-maximized="1">
   <inkscape:grid type="xygrid" id="grid1567"/>
  </sodipodi:namedview>
  <g id="layer3" inkscape:groupmode="layer" inkscape:label="Layer 2">
   <g id="g4603">
    <path id="path840" class="fil0" d="M154 104l-82 30c-1,2 -1,6 -4,7 -8,-2 -11,5 -17,9 -4,-3 -11,5 -18,17 16,6 14,16 24,26 -13,-7 -12,-21 -28,-15 -5,5 -9,12 -11,21 14,10 29,19 32,34 17,12 29,21 43,29 6,3 9,6 10,8 12,-1 23,-1 35,-4l14 -23c22,2 23,-3 34,-3l11 28 20 2 10 -7 20 0c8,7 6,14 15,14l-4 13c14,1 12,-6 22,-8 7,4 -2,17 2,19 4,2 11,-7 11,-7 9,4 9,-2 12,-9l2 18c1,6 23,-10 28,-20 16,11 3,20 7,23 10,3 18,-9 27,-17 2,5 1,10 -1,15 9,-4 15,-14 19,-13 16,4 39,-33 51,-59 2,-4 5,-9 4,-14 0,-5 4,-5 10,-3 5,-21 27,-41 27,-57 4,-6 16,-17 3,-20l-34 -1c-10,7 -20,16 -17,2 -29,-5 -29,11 -56,18l-63 -18c-9,2 -30,19 -17,1 4,-6 -14,11 -68,-27 -6,0 -10,-1 -30,4l-29 -1 -14 -12zm77 57l39 33c2,1 4,23 -5,30 -4,1 -7,2 -11,-1 -4,-4 -11,1 -17,3 -23,-15 -38,-30 -68,-44 17,3 32,2 32,-15l30 -6zm141 20c9,8 18,16 28,20 2,10 -6,21 -14,33l3 -17c3,-9 -3,-13 -9,-16l-8 -20zm-76 36c2,0 11,11 12,16 0,3 -5,5 -7,4 -3,-1 -5,-15 -5,-19 0,-1 0,-1 0,-1z" inkscape:connector-curvature="0"/>
    <path id="path863" class="fil0" d="M174 258c-5,0 -14,3 -24,19 -4,5 -21,1 -23,1 -8,1 -12,6 -11,13l8 41c2,3 8,9 22,11 4,1 6,-1 15,4 6,3 8,-6 11,1 1,4 23,1 63,53 14,19 18,9 29,17 7,6 53,15 53,15 0,0 37,11 55,7 30,-7 22,-4 31,-5 7,-1 18,-11 18,-11l-90 -30c0,0 13,16 17,24 2,3 -27,-26 -28,-30 -1,-4 0,-8 -8,-9l1 -5c-22,-9 -45,-17 -62,-28l39 13c13,3 29,5 35,22 1,3 11,6 18,0l20 -17c0,-7 8,-10 12,-14l0 -7 -16 1c-9,0 -6,-6 -7,-12l-15 11 -9 0 0 -15 -18 9c-10,6 -5,-5 -5,-12l-6 0 -3 -3c4,3 -31,28 -18,1 2,-6 -9,0 -20,5 -4,1 -2,-9 -2,-14l-6 0 0 -8 -12 10c-16,-6 -18,4 -17,-14 -13,-8 -27,-1 -30,-8l-12 -35c0,-1 -2,-1 -5,-1zm102 149l19 9 -14 -2c-3,-3 -3,-5 -5,-7l0 0z" inkscape:connector-curvature="0"/>
    <path id="path4586" class="fil0" d="M257 489l41 -39 21 0 -62 62 -257 -255 33 -33 6 0 0 15 -18 18 141 140c1,3 0,6 7,6l88 86z" sodipodi:nodetypes="cccccccccccc" inkscape:connector-curvature="0"/>
    <polygon id="path4588" class="fil0" points="378,391 360,387 489,257 454,220 467,212 512,257 " inkscape:connector-curvature="0"/>
    <polygon id="path4590" class="fil0" points="395,138 257,0 164,93 171,97 181,97 257,23 378,144 " inkscape:connector-curvature="0"/>
   </g>
  </g>
 </g>
</svg>
