<?xml version="1.0" encoding="utf-8"?>
<!-- Generator: Adobe Illustrator 22.1.0, SVG Export Plug-In . SVG Version: 6.00 Build 0)  -->
<svg version="1.1" id="Layer_4_1_" xmlns="http://www.w3.org/2000/svg" xmlns:xlink="http://www.w3.org/1999/xlink" x="0px" y="0px"
	 viewBox="0 0 37 37" style="enable-background:new 0 0 37 37;" xml:space="preserve">
<style type="text/css">
	.st0{fill:#2B3B3B;}
</style>
<path class="st0" d="M16.2,30.1l0.3-2.2L16,27.8V27l0,0c-0.7-0.2-1.5-0.5-2.1-0.8l0,0l-0.7,1.2c0,0-0.1,0-0.1,0
	c-0.2,0-0.3,0.1-0.3,0.3c0,0.2,0.1,0.3,0.3,0.3s0.3-0.1,0.3-0.3c0-0.1,0-0.2-0.1-0.2l0.6-1.1c0.2,0.1,0.5,0.2,0.7,0.3l-0.3,0.7
	c0,0,0,0-0.1,0c-0.2,0-0.3,0.1-0.3,0.3c0,0.2,0.1,0.3,0.3,0.3c0.2,0,0.3-0.1,0.3-0.3c0-0.1-0.1-0.2-0.1-0.2l0.3-0.7
	c0.4,0.2,0.8,0.3,1.2,0.4v0.9l0.6,0.1l-0.3,2c-0.2,0-0.3,0.1-0.3,0.3c0,0.2,0.1,0.3,0.3,0.3c0.2,0,0.3-0.1,0.3-0.3
	C16.5,30.3,16.4,30.2,16.2,30.1z M13,27.8c-0.1,0-0.2-0.1-0.2-0.2s0.1-0.2,0.2-0.2c0.1,0,0.2,0.1,0.2,0.2S13.1,27.8,13,27.8z
	 M14.1,27.8c-0.1,0-0.2-0.1-0.2-0.2s0.1-0.2,0.2-0.2c0.1,0,0.2,0.1,0.2,0.2S14.2,27.8,14.1,27.8z M16.2,30.6c-0.1,0-0.2-0.1-0.2-0.2
	c0-0.1,0.1-0.2,0.2-0.2c0.1,0,0.2,0.1,0.2,0.2C16.4,30.5,16.3,30.6,16.2,30.6z"/>
<path class="st0" d="M20.5,30.4c0,0.2,0.1,0.3,0.3,0.3c0.2,0,0.3-0.1,0.3-0.3c0-0.2-0.1-0.3-0.3-0.3l-0.3-2l0.6-0.1V27
	c0.4-0.1,0.8-0.3,1.2-0.4l0.3,0.7c-0.1,0.1-0.1,0.1-0.1,0.2c0,0.2,0.1,0.3,0.3,0.3c0.2,0,0.3-0.1,0.3-0.3c0-0.2-0.1-0.3-0.3-0.3
	c0,0,0,0-0.1,0l-0.3-0.7c0.2-0.1,0.5-0.2,0.7-0.3l0.6,1.1c-0.1,0.1-0.1,0.1-0.1,0.2c0,0.2,0.1,0.3,0.3,0.3c0.2,0,0.3-0.1,0.3-0.3
	c0-0.2-0.1-0.3-0.3-0.3c0,0-0.1,0-0.1,0l-0.7-1.2l0,0c-0.7,0.3-1.4,0.6-2.1,0.8l0,0v0.9L20.5,28l0.3,2.2
	C20.6,30.2,20.5,30.3,20.5,30.4z M23.8,27.6c0-0.1,0.1-0.2,0.2-0.2c0.1,0,0.2,0.1,0.2,0.2s-0.1,0.2-0.2,0.2
	C23.9,27.8,23.8,27.7,23.8,27.6z M22.7,27.6c0-0.1,0.1-0.2,0.2-0.2c0.1,0,0.2,0.1,0.2,0.2s-0.1,0.2-0.2,0.2
	C22.8,27.8,22.7,27.7,22.7,27.6z M20.6,30.4c0-0.1,0.1-0.2,0.2-0.2c0.1,0,0.2,0.1,0.2,0.2c0,0.1-0.1,0.2-0.2,0.2
	C20.7,30.6,20.6,30.5,20.6,30.4z"/>
<path class="st0" d="M28.6,23.5c-0.1,0-0.2,0-0.2,0.1l-1.3-0.8l0,0c-0.4,0.5-0.8,1-1.3,1.4l-0.6-0.1c0.7-0.6,1.2-1.3,1.7-2l3.6,1.3
	l-2.9-2.6c0.1-0.1,0.1-0.3,0.2-0.4l0.7,0l0,0c0.2-0.4,0.3-0.9,0.5-1.3l1-0.7l0.1-1.2c0.1,0,0.3-0.1,0.3-0.3c0-0.2-0.1-0.3-0.3-0.3
	c-0.2,0-0.3,0.1-0.3,0.3c0,0.1,0.1,0.3,0.3,0.3l-0.1,1.1L29,19l0,0c-0.1,0.4-0.3,0.9-0.5,1.3l-0.6,0c0.3-0.7,0.5-1.4,0.6-2.1l0,0
	l0.8-0.5v-2.1c0.1,0,0.2-0.1,0.2-0.3c0-0.2-0.1-0.3-0.3-0.3c-0.2,0-0.3,0.1-0.3,0.3c0,0.2,0.1,0.3,0.3,0.3v2.1l-0.7,0.4
	c0.1-0.5,0.1-1,0.1-1.6c0-2.9-1.2-5.5-3.1-7.4c1.6,1.7,2.6,4,2.6,6.6c0,5.3-4.3,9.7-9.7,9.7s-9.7-4.3-9.7-9.7c0-2.6,1-4.9,2.6-6.6
	c-1.9,1.9-3.1,4.5-3.1,7.4c0,0.5,0.1,1,0.1,1.6l-0.7-0.4v-2.1c0.2,0,0.3-0.1,0.3-0.3C8.1,15.2,8,15,7.8,15c-0.2,0-0.3,0.1-0.3,0.3
	c0,0.1,0.1,0.2,0.2,0.3v2.1l0.8,0.5l0,0c0.1,0.7,0.3,1.5,0.6,2.1l-0.6,0C8.3,20,8.2,19.5,8,19.1l0,0l-1-0.7L7,17.3
	c0.1,0,0.3-0.1,0.3-0.3c0-0.2-0.1-0.3-0.3-0.3S6.6,16.8,6.6,17c0,0.1,0.1,0.3,0.3,0.3L7,18.5l1,0.7c0.1,0.4,0.3,0.9,0.5,1.3l0,0
	l0.7,0c0.1,0.1,0.1,0.3,0.2,0.4l-2.9,2.6l3.6-1.3c0.5,0.7,1.1,1.4,1.7,2l-0.6,0.1c-0.5-0.4-0.9-0.9-1.3-1.4l0,0l-1.3,0.8
	c-0.1-0.1-0.1-0.1-0.2-0.1c-0.2,0-0.3,0.1-0.3,0.3c0,0.2,0.1,0.3,0.3,0.3c0.2,0,0.3-0.1,0.3-0.3c0,0,0-0.1,0-0.1l1.2-0.7
	c0.2,0.2,0.4,0.5,0.6,0.7L9,24.8c-0.1,0-0.1-0.1-0.2-0.1c-0.2,0-0.3,0.1-0.3,0.3c0,0.2,0.1,0.3,0.3,0.3c0.2,0,0.3-0.1,0.3-0.3
	c0-0.1,0-0.1-0.1-0.1l1.4-1.1c0.2,0.2,0.4,0.4,0.6,0.7l0,0l0.7-0.2c0.1,0.1,0.1,0.1,0.2,0.2l-1.9,5.5l3.6-4.3c0.9,0.5,1.8,0.8,2.9,1
	l1.9,10.1l1.9-10.1c1-0.2,2-0.5,2.9-1l3.6,4.3L25,24.4c0.1-0.1,0.1-0.1,0.2-0.2l0.7,0.2l0,0c0.2-0.2,0.4-0.4,0.6-0.7l1.4,1.1
	c0,0-0.1,0.1-0.1,0.1c0,0.2,0.1,0.3,0.3,0.3c0.2,0,0.3-0.1,0.3-0.3c0-0.2-0.1-0.3-0.3-0.3c-0.1,0-0.1,0-0.2,0.1l-1.4-1.1
	c0.2-0.2,0.4-0.5,0.6-0.7l1.2,0.7c0,0,0,0.1,0,0.1c0,0.2,0.1,0.3,0.3,0.3c0.2,0,0.3-0.1,0.3-0.3C28.9,23.6,28.8,23.5,28.6,23.5z
	 M29.9,17c0-0.1,0.1-0.2,0.2-0.2c0.1,0,0.2,0.1,0.2,0.2c0,0.1-0.1,0.2-0.2,0.2C30,17.2,29.9,17.1,29.9,17z M29,15.3
	c0-0.1,0.1-0.2,0.2-0.2c0.1,0,0.2,0.1,0.2,0.2c0,0.1-0.1,0.2-0.2,0.2C29.1,15.5,29,15.4,29,15.3z M7.6,15.3c0-0.1,0.1-0.2,0.2-0.2
	c0.1,0,0.2,0.1,0.2,0.2c0,0.1-0.1,0.2-0.2,0.2C7.7,15.5,7.6,15.4,7.6,15.3z M6.9,17.2c-0.1,0-0.2-0.1-0.2-0.2c0-0.1,0.1-0.2,0.2-0.2
	s0.2,0.1,0.2,0.2C7.1,17.1,7,17.2,6.9,17.2z M8.4,24c-0.1,0-0.2-0.1-0.2-0.2s0.1-0.2,0.2-0.2c0.1,0,0.2,0.1,0.2,0.2S8.5,24,8.4,24z
	 M8.8,25.2c-0.1,0-0.2-0.1-0.2-0.2c0-0.1,0.1-0.2,0.2-0.2C8.9,24.8,9,24.9,9,25C9,25.1,8.9,25.2,8.8,25.2z M28.2,24.8
	c0.1,0,0.2,0.1,0.2,0.2c0,0.1-0.1,0.2-0.2,0.2c-0.1,0-0.2-0.1-0.2-0.2C28,24.9,28.1,24.8,28.2,24.8z M28.6,24
	c-0.1,0-0.2-0.1-0.2-0.2s0.1-0.2,0.2-0.2s0.2,0.1,0.2,0.2S28.8,24,28.6,24z"/>
<path class="st0" d="M26.9,14.2c-0.2,1.2-0.7,3.2-1,3.2c0,0,0.3-1.3,0.3-2s-0.1-1.9-0.4-2.2c-0.3-0.3-2-3.3-2-5.1
	c0,0-0.6,0.8-0.6,1.9c0,1.1,0.1,1.8,0.1,1.8s-0.4-0.7-0.8-1c-0.3-0.3-0.9-1.1-0.9-1.9c0-0.8,0.3-3,0.5-3.2c0,0-0.9,0.4-1.3,1.3
	c0,0-0.2-0.1-0.2-1.3c0-1.1,0.5-3,0.5-5.4c0,0-0.9,2.2-3,3.8s-2.8,3.1-3,3.5C15,8,14.6,8.9,14.4,10.4c-0.2,1.4-0.6,2.1-0.6,2.1
	S14,9.7,12,7.2c0,0,0.3,0.9,0.3,1.6c0,0.8-0.1,1.4-0.5,2.2c-0.5,0.8-0.9,1.9-0.9,2.8c0,0.9,0.5,4.4,0.9,4.9c0,0-0.5-0.5-0.8-1
	c-0.4-0.6-1-1.5-1-2.8c0,0.3,0,0.5,0,0.8c0,4.7,3.8,8.7,8.5,8.7s8.5-4,8.5-8.7C27,15.2,27,14.7,26.9,14.2z M23.5,19.2l-1.3,1.3
	L19,18.4H21l-2.4-4.2l-2.4,4.2H18l-3.1,2.1l-1.3-1.3c-0.1-0.1-0.1-0.2,0-0.2l4.9-8.5l5,8.5C23.5,19,23.5,19.1,23.5,19.2z"/>
</svg>
