<?xml version="1.0" encoding="utf-8"?>
<!-- Generator: Adobe Illustrator 22.1.0, SVG Export Plug-In . SVG Version: 6.00 Build 0)  -->
<svg version="1.1" id="Layer_4_1_" xmlns="http://www.w3.org/2000/svg" xmlns:xlink="http://www.w3.org/1999/xlink" x="0px" y="0px"
	 viewBox="0 0 37 37" style="enable-background:new 0 0 37 37;" xml:space="preserve">
<style type="text/css">
	.st0{fill:#2B3B3C;}
</style>
<g>
	<path class="st0" d="M31.7,13.2c-0.3-1.5-1-2.9-1.7-4.1l1.3-2.3l-1.7-1.7L28,3.5l-2.4,1.3c-1.2-0.7-2.5-1.3-4-1.7l-0.7-2.6h-2.4
		h-2.4l-0.7,2.6c-1.4,0.3-2.8,0.9-4,1.7L9.1,3.4L7.4,5.1L5.8,6.8l1.3,2.3c-0.8,1.2-1.4,2.6-1.7,4.1l-2.5,0.7v2.4v2.4l2.6,0.7
		c0.3,1.4,0.9,2.8,1.7,3.9l-1.4,2.4l1.2,1.2l1.7-1.7l-1-1.4c-1.2-2-1.9-4.3-1.9-6.8c0-7.2,5.7-13,12.8-13s12.8,5.9,12.8,13
		c0,2.5-0.7,4.8-1.9,6.8l-1,1.4l1.7,1.7l1.2-1.2l-1.4-2.4c0.8-1.1,1.3-2.5,1.7-3.9l2.6-0.7v-2.4v-2.4L31.7,13.2z"/>
	<path class="st0" d="M8.2,11.2c1.7-3.3,5.1-5.7,9-6.2V4.9c-4,0.4-7.4,2.9-9.2,6.3H8.2z"/>
	<path class="st0" d="M8.2,11.3c0,0-0.5,1.6-0.6,1.6S7,13,7,12.6s0.6-1.3,0.9-1.3C8.1,11.2,8.2,11.3,8.2,11.3z"/>
	<path class="st0" d="M28.9,11.2h0.3c-1.8-3.4-5.2-5.9-9.2-6.3V5C23.8,5.5,27.1,7.8,28.9,11.2z"/>
	<path class="st0" d="M28.9,11.3c0,0,0.5,1.6,0.6,1.6c0.1,0,0.6,0.1,0.6-0.3s-0.6-1.3-0.9-1.3C29,11.3,28.9,11.3,28.9,11.3z"/>
	<path class="st0" d="M7.1,18.9c-0.2-0.8-0.3-1.6-0.3-2.4c0-1.2,0.2-2.4,0.5-3.5c-0.1,0-0.2,0-0.3,0c-0.4,1.2-0.6,2.4-0.6,3.8
		c0,0.8,0.1,1.5,0.2,2.2C6.8,19,7,19,7.1,18.9z"/>
	<path class="st0" d="M7.3,19.1c0.2,0,0.8,1.5,0.8,1.8c0,0.3-0.3,0.5-0.6,0.5c-0.3,0-0.5-0.3-0.6-0.6c-0.1-0.2-0.3-1.4-0.2-1.5
		C6.8,19.3,7,19.1,7.3,19.1z"/>
	<path class="st0" d="M30,18.9c0.2,0,0.3,0.1,0.3,0.2c0.2-0.7,0.2-1.5,0.2-2.2c0-1.3-0.3-2.6-0.6-3.8c-0.1,0-0.2,0-0.3,0
		c0.3,1.1,0.5,2.3,0.5,3.5C30.3,17.4,30.1,18.2,30,18.9z"/>
	<path class="st0" d="M29.8,19.1c-0.2,0-0.8,1.5-0.8,1.8c0,0.3,0.3,0.5,0.6,0.5c0.3,0,0.5-0.3,0.6-0.6c0.1-0.2,0.3-1.4,0.2-1.5
		C30.3,19.2,30.1,19.1,29.8,19.1z"/>
	<path class="st0" d="M9.5,24c-0.6-0.8-1.1-1.6-1.6-2.4c-0.1,0.1-0.3,0.1-0.4,0.2c0.4,1,1,1.9,1.7,2.7L9.5,24z"/>
	<path class="st0" d="M27.9,24.4c0.7-0.9,1.2-1.7,1.7-2.7c-0.2,0-0.3-0.1-0.4-0.2c-0.4,0.9-1,1.7-1.6,2.4L27.9,24.4z"/>
	<path class="st0" d="M10.2,20.2c-0.4-0.9-0.8-1.8-0.9-2.8h0.3l0.7,0.6l0.3,1.2L10.2,20.2"/>
	<path class="st0" d="M10.5,11.9V9.8c1.2-1.6,2.9-2.8,4.8-3.4l-0.2,1.1c0,0-1.7,0.7-2.9,1.8c0,0,0,0.5,0.2,0.9c0,0-0.9,0.9-1.4,1.9
		L10.5,11.9z"/>
	<polygon class="st0" points="9,14.7 9.1,14.4 8.4,14.9 8.4,15.2 	"/>
	<path class="st0" d="M18.1,6.3c-0.9,0-1.8,0.2-2.6,0.5l-0.2,0.9h-0.1c0,0-1.6,0.7-2.7,1.7c0,0.2,0,0.5,0.1,0.7v0.1l-0.1,0.1
		c0,0-0.8,0.9-1.4,1.9v0.3L10.3,12v-0.8c-0.4,0.9-0.8,1.9-1,2.9l-0.1,0.1l-0.1,0.5l-0.9,0.6V17l0.9-0.1l0,0l0.9-1
		c0.2-0.9,0.3-1.8,0.3-1.8V14l1.5,0.3c0.7-2.6,3.1-4,3.2-4.1l0,0h0.7L18.1,6.3L18.1,6.3z"/>
	<path class="st0" d="M11.4,15.3c-0.2,0-0.3,0.2-0.3,0.3s0.2,0.3,0.3,0.3s0.3-0.2,0.3-0.3S11.6,15.3,11.4,15.3z"/>
	<path class="st0" d="M11.8,14.4l-1.1-0.2c0,0-0.3,0.7-0.3,1.8l-0.8,1l1,0.9l1.7-1.7l0.1-0.9L11.8,14.4z M11.4,16.1
		c-0.3,0-0.5-0.3-0.5-0.5c0-0.3,0.3-0.5,0.5-0.5s0.5,0.3,0.5,0.5C11.9,15.9,11.6,16.1,11.4,16.1z"/>
	<path class="st0" d="M21.8,10.3H21L18.5,6l-2.4,4.3h-0.8c-0.1,0.1-0.4,0.3-0.8,0.6c0.3,0,1,0,1.3,0c0.3,0,0.7-0.3,0.7-0.3l2-3.5
		l2,3.5c0,0,0.3,0.3,0.7,0.3c0.3,0,1,0,1.3,0C22.2,10.5,21.9,10.4,21.8,10.3z"/>
	<g>
		<path class="st0" d="M13,12.6c-0.1,0.2-0.2,0.3-0.3,0.5l0.6,0.3c0.1-0.2,0.2-0.3,0.3-0.5L13,12.6z"/>
		<path class="st0" d="M14.2,12.1c0.2-0.2,0.3-0.3,0.6-0.5l-0.4-0.5c-0.3,0.2-0.4,0.3-0.6,0.6L14.2,12.1z"/>
		<path class="st0" d="M12.3,14c0,0.1-0.1,0.2-0.1,0.3l0.6,0.3c0-0.1,0.1-0.2,0.1-0.2L12.3,14z"/>
		<path class="st0" d="M13.6,11.9c-0.2,0.2-0.3,0.3-0.4,0.6l0.5,0.3c0.1-0.2,0.3-0.3,0.3-0.5L13.6,11.9z"/>
		<path class="st0" d="M13,14.1c0.1-0.1,0.1-0.3,0.2-0.3l-0.6-0.3c-0.1,0.2-0.1,0.3-0.2,0.4L13,14.1z"/>
	</g>
	<path class="st0" d="M10.3,11.2v-0.7c0,0-0.3,0-0.3,0.1s-1.1,0.3-1.1,1.7c0,1.2,0.3,1.1,0.3,1.1c0.1-0.1,0.3-0.7,0.2-0.7
		s-0.3,0-0.3-0.3c0-0.3,0.1-1.3,0.9-1.3C10.2,11.1,10.1,11.2,10.3,11.2z"/>
	<path class="st0" d="M9,17.2H8.6c0,0-0.1,0.3,0.1,0.3v0.6c0,0,0,0.7,0.7,1c0,0,0.3,0.1,0.3-0.1c-0.1-0.2-0.1-0.3-0.1-0.3
		s-0.1,0-0.2,0.1s-0.4-0.3-0.4-0.7s0-0.7,0.1-0.7C9.1,17.5,9,17.2,9,17.2z"/>
	<path class="st0" d="M15.9,23.9c-0.5-0.2-1.1-0.4-1.6-0.8l-0.3,0.2c0.7,0.4,1.4,0.8,2.2,1V24C16.1,24,15.9,23.9,15.9,23.9
		L15.9,23.9z"/>
	<path class="st0" d="M14.5,21.6l-1.1,0.8l-2.2-2.3l0.6-1c-0.3-0.5-0.4-1.1-0.5-1.7l-0.5,0.5c0.1,0.4,0.3,0.8,0.4,1.1l-0.7,1.2
		l2.9,3.3l0.1-0.1l0.8-0.6l0.1,0.1c0.5,0.3,1,0.5,1.5,0.7v-1.3C15.4,22.2,15,21.9,14.5,21.6z"/>
	<circle class="st0" cx="16" cy="24.5" r="0.2"/>
	<circle class="st0" cx="15.5" cy="24.4" r="0.2"/>
	<circle class="st0" cx="14.9" cy="24.2" r="0.2"/>
	<circle class="st0" cx="14.3" cy="23.9" r="0.2"/>
	<circle class="st0" cx="13.9" cy="23.7" r="0.2"/>
	<path class="st0" d="M26.8,20.2c0.4-0.9,0.8-1.8,0.9-2.8h-0.3l-0.7,0.6l-0.3,1.2L26.8,20.2"/>
	<path class="st0" d="M26.6,11.9V9.8c-1.2-1.6-2.9-2.8-4.8-3.4L22,7.6c0,0,1.7,0.7,2.9,1.8c0,0,0,0.5-0.2,0.9c0,0,0.9,0.9,1.4,1.9
		L26.6,11.9z"/>
	<polygon class="st0" points="28.1,14.7 28,14.4 28.7,14.9 28.7,15.2 	"/>
	<path class="st0" d="M19,6.3c0.9,0,1.8,0.2,2.6,0.5l0.2,0.9h0.1c0,0,1.6,0.7,2.7,1.7c0,0.2,0,0.5-0.1,0.7v0.1l0.1,0.1
		c0,0,0.8,0.9,1.4,1.9l0.1,0.2l0.8-0.4v-0.8c0.4,0.9,0.8,1.9,1,2.9l0.1,0.1l0.1,0.5l0.9,0.6v1.7L28,16.8l0,0l-0.9-1
		c-0.1-1-0.3-1.8-0.3-1.9v-0.1L25.4,14c-0.7-2.6-3.1-4-3.2-4.1l0,0h-0.7L19,6.3L19,6.3z"/>
	<path class="st0" d="M25.7,15.3c0.2,0,0.3,0.2,0.3,0.3S25.9,16,25.7,16c-0.2,0-0.3-0.2-0.3-0.3S25.5,15.3,25.7,15.3z"/>
	<path class="st0" d="M24.6,15.3l0.1,0.9l1.7,1.7l1-0.9l-0.8-1c0-1-0.3-1.8-0.3-1.8l-1.1,0.2L24.6,15.3z M25.2,15.6
		c0-0.3,0.3-0.5,0.5-0.5s0.5,0.3,0.5,0.5c0,0.3-0.3,0.5-0.5,0.5C25.4,16.1,25.2,15.9,25.2,15.6z"/>
	<g>
		<path class="st0" d="M24.1,12.6c0.1,0.2,0.2,0.3,0.3,0.5l-0.6,0.3c-0.1-0.2-0.2-0.3-0.3-0.5L24.1,12.6z"/>
		<path class="st0" d="M22.9,12.1c-0.2-0.2-0.3-0.3-0.6-0.5l0.4-0.5c0.3,0.2,0.4,0.3,0.6,0.6L22.9,12.1z"/>
		<path class="st0" d="M24.7,14c0,0.1,0.1,0.2,0.1,0.3l-0.6,0.3c0-0.1-0.1-0.2-0.1-0.2L24.7,14z"/>
		<path class="st0" d="M23.5,11.9c0.2,0.2,0.3,0.3,0.4,0.6l-0.5,0.3c-0.1-0.2-0.3-0.3-0.3-0.5L23.5,11.9z"/>
		<path class="st0" d="M24,14.1C24,14,24,13.9,23.9,13.8l0.6-0.3c0.1,0.2,0.1,0.3,0.2,0.4L24,14.1z"/>
	</g>
	<path class="st0" d="M26.8,11.2v-0.7c0,0,0.3,0,0.3,0.1s1.1,0.3,1.1,1.7c0,1.2-0.3,1.1-0.3,1.1c-0.1-0.1-0.3-0.7-0.2-0.7
		c0.2,0,0.3,0,0.3-0.3c0-0.3-0.1-1.3-0.9-1.3C26.9,11.1,27,11.2,26.8,11.2z"/>
	<path class="st0" d="M28.1,17.2h0.3c0,0,0.1,0.3-0.1,0.3v0.6c0,0,0,0.7-0.7,1c0,0-0.3,0.1-0.3-0.1c0.1-0.2,0.1-0.3,0.1-0.3
		s0.1,0,0.2,0.1c0.1,0.1,0.4-0.3,0.4-0.7s0-0.7-0.1-0.7C27.9,17.5,28.1,17.2,28.1,17.2z"/>
	<path class="st0" d="M21.2,23.9c0.5-0.2,1.1-0.4,1.6-0.8l0.3,0.2c-0.7,0.4-1.4,0.8-2.2,1V24C21,24,21.2,23.9,21.2,23.9L21.2,23.9z"
		/>
	<path class="st0" d="M22.6,21.6l1.1,0.8l2.2-2.3l-0.6-1c0.3-0.5,0.4-1.1,0.5-1.7l0.5,0.5c-0.1,0.4-0.3,0.8-0.4,1.1l0.7,1.1
		l-2.9,3.3l-0.1-0.1l-0.8-0.5h-0.1c-0.5,0.3-1,0.5-1.5,0.7v-1.3C21.7,22.2,22.1,21.9,22.6,21.6z"/>
	<polygon class="st0" points="18.5,7.8 11.6,20.1 13.4,22.1 17.6,19.2 15,19.2 18.5,13.1 22.1,19.2 19.5,19.2 23.7,22.1 25.5,20.1 	
		"/>
	<circle class="st0" cx="21.1" cy="24.5" r="0.2"/>
	<circle class="st0" cx="21.6" cy="24.4" r="0.2"/>
	<circle class="st0" cx="22.2" cy="24.2" r="0.2"/>
	<circle class="st0" cx="22.7" cy="23.9" r="0.2"/>
	<circle class="st0" cx="23.2" cy="23.7" r="0.2"/>
</g>
<g>
	<path class="st0" d="M13.7,30.4c0.3-0.5,0.5-0.8,0.7-0.9c-0.6-0.4-1.1-0.9-1.3-1.2c0,0.2-0.1,0.5-0.2,0.8c0.4,0.3,0.6,0.8,0.6,1.1
		C13.6,30.3,13.7,30.4,13.7,30.4z"/>
	<path class="st0" d="M16.8,26c-0.1,0.7-0.5,1.3-1.5,1.3c-1.3,0-1.7-1-2.2-1c-0.5,0-0.6-0.3-1-0.3c-0.4,0-2.1-1.7-2.1-1.9
		s-0.1-0.4-0.6,0c-0.4,0.4-0.6,0.5-0.4,0.8c0.1,0.1,0.3,0.4,0.5,0.8c0.2,0.1,0.4,0.3,0.5,0.5l0.2,0.3L10,26.2c0,0-0.1-0.1-0.2-0.2
		c0,0.1,0.1,0.3,0.1,0.4c0,0.3,0.2,0.5,0.5,0.6c0.2,0,0.5,0.1,0.7,0.1l0.3,0.1l-0.3,0c0,0-0.1,0-0.3,0c0.1,0.3,0.3,0.8,1.1,0.8
		c0.1,0,0.1,0,0.2,0l0.3,0l-0.3,0.1c0,0-0.1,0-0.2,0c0,0.2,0.1,0.6,0.6,0.6c0.1,0,0.2,0,0.4,0.1c0.1-0.4,0.2-0.8,0.2-0.9v-0.4
		l0.2,0.3c0,0,0.7,1,1.6,1.5l0.2,0.1l-0.2,0.1c0,0-0.5,0.3-0.9,1.1c0,0,0,0,0,0.1c0,0.5,0.3,0.2,0.5,0.5c0.2,0.2,0.1,1,0.5,1.4
		c0.3,0.3,1.5,1.8,1.6,2.8c0,0,0.2-0.1-0.3-1.4c0,0,0.7,1.1,0.6,2.1c0,0,0.3-0.8,0-1.6c0,0,0.6,0.7,0.6,1.9c0,0,0.3-0.7,0.3-1.5
		c0-0.8-0.6-2.4-0.6-3.3c0,0-0.1-1,0.2-1.6c0.3-0.6,0.5-0.9,0.5-1.4c0-0.5,0.6-2.3,0.6-2.7c0,0,0,0,0,0C17.5,26,17.1,26,16.8,26z"/>
	<path class="st0" d="M18.2,25.6c-0.2-0.5-0.4-1.2-0.4-1.7c0-0.7-0.9,0.1-0.9,1.2c0,0.2,0,0.3,0,0.5H18.2z"/>
	
		<rect x="17" y="25.8" transform="matrix(0.9996 2.702043e-02 -2.702043e-02 0.9996 0.7044 -0.4652)" class="st0" width="1.1" height="0.2"/>
	<path class="st0" d="M10.7,23.4c0.2-0.2,0.7-0.8,0.7-1.1c0-0.4-0.4-0.2-0.8,0.1c-0.3,0.2-0.6,0.4-0.8,0.6
		C10.3,23.1,10.6,23.3,10.7,23.4z"/>
	<path class="st0" d="M9.7,23.4l0,0.3c0,0,0.5,0,0.5,0.2c0,0.2,0.4,0.6,0.4,0.7v-0.9C10.4,23.5,10,23.4,9.7,23.4z"/>
	<rect x="10" y="23.2" transform="matrix(0.9311 0.3646 -0.3646 0.9311 9.2016 -2.1425)" class="st0" width="0.6" height="0.1"/>
	<rect x="11.1" y="24.7" transform="matrix(0.9311 0.3646 -0.3646 0.9311 9.8116 -2.4419)" class="st0" width="0.6" height="0.1"/>
	<rect x="12.4" y="25.6" transform="matrix(0.9311 0.3646 -0.3646 0.9311 10.2201 -2.8315)" class="st0" width="0.5" height="0.1"/>
	<path class="st0" d="M10.9,24.8C10.9,24.8,10.9,24.8,10.9,24.8l0.8,0.8v-0.5C11.4,24.8,11.1,24.8,10.9,24.8z"/>
	<path class="st0" d="M11,24.4c0.3,0.1,0.5,0.3,0.7,0.4c0.1-0.1,0.5-0.3,0.8-0.9C12.9,23.1,11.2,24.2,11,24.4z"/>
	<path class="st0" d="M12.1,25.7l0,0.2c0,0,0.3,0,0.6,0.2c0,0,0.1,0.1,0.1-0.2C12.6,25.8,12.4,25.7,12.1,25.7z"/>
	<path class="st0" d="M12.4,25.3c0.3,0.1,0.5,0.3,0.7,0.4c0.2-0.1,0.5-0.3,0.7-0.6C14.1,24.6,12.9,25,12.4,25.3z"/>
	<path class="st0" d="M23.3,30.4c-0.3-0.5-0.5-0.8-0.7-0.9c0.6-0.4,1.1-0.9,1.3-1.2c0,0.2,0.1,0.5,0.2,0.8c-0.4,0.3-0.6,0.8-0.6,1.1
		C23.4,30.3,23.3,30.4,23.3,30.4z"/>
	<path class="st0" d="M20.2,26c0.1,0.7,0.5,1.3,1.5,1.3c1.3,0,1.7-1,2.2-1c0.5,0,0.6-0.3,1-0.3s2.1-1.7,2.1-1.9s0.1-0.4,0.6,0
		c0.4,0.4,0.6,0.5,0.4,0.8c-0.1,0.1-0.3,0.4-0.5,0.8c-0.2,0.1-0.4,0.3-0.5,0.5l-0.2,0.3l0.2-0.2c0,0,0.1-0.1,0.2-0.2
		c0,0.1-0.1,0.3-0.1,0.4c0,0.3-0.2,0.5-0.5,0.6c-0.2,0-0.5,0.1-0.7,0.1l-0.3,0.1l0.3,0c0,0,0.1,0,0.3,0c-0.1,0.3-0.3,0.8-1.1,0.8
		c-0.1,0-0.1,0-0.2,0l-0.3,0l0.3,0.1c0,0,0.1,0,0.2,0c0,0.2-0.1,0.6-0.6,0.6c-0.1,0-0.2,0-0.4,0.1c-0.1-0.4-0.2-0.8-0.2-0.9v-0.4
		l-0.2,0.3c0,0-0.7,1-1.6,1.5L22,29.5l0.2,0.1c0,0,0.5,0.3,0.9,1.1c0,0,0,0,0,0.1c0,0.5-0.3,0.2-0.5,0.5c-0.2,0.2-0.1,1-0.5,1.4
		c-0.3,0.3-1.5,1.8-1.6,2.8c0,0-0.2-0.1,0.3-1.4c0,0-0.7,1.1-0.6,2.1c0,0-0.3-0.8,0-1.6c0,0-0.6,0.7-0.6,1.9c0,0-0.3-0.7-0.3-1.5
		c0-0.8,0.6-2.4,0.6-3.3c0,0,0.1-1-0.2-1.6c-0.3-0.6-0.5-0.9-0.5-1.4c0-0.5-0.6-2.3-0.6-2.7c0,0,0,0,0,0C19.5,26,19.9,26,20.2,26z"
		/>
	<path class="st0" d="M18.8,25.6c0.2-0.5,0.4-1.2,0.4-1.7c0-0.7,0.9,0.1,0.9,1.2c0,0.2,0,0.3,0,0.5H18.8z"/>
	
		<rect x="18.9" y="25.8" transform="matrix(-0.9996 2.702043e-02 -2.702043e-02 -0.9996 39.5696 51.1287)" class="st0" width="1.1" height="0.2"/>
	<path class="st0" d="M26.3,23.4c-0.2-0.2-0.7-0.8-0.7-1.1c0-0.4,0.4-0.2,0.8,0.1c0.3,0.2,0.6,0.4,0.8,0.6
		C26.7,23.1,26.4,23.3,26.3,23.4z"/>
	<path class="st0" d="M27.3,23.4l0,0.3c0,0-0.5,0-0.5,0.2c0,0.2-0.4,0.6-0.4,0.7v-0.9C26.7,23.5,27,23.4,27.3,23.4z"/>
	
		<rect x="26.4" y="23.2" transform="matrix(-0.9311 0.3646 -0.3646 -0.9311 60.1138 35.2377)" class="st0" width="0.6" height="0.1"/>
	
		<rect x="25.4" y="24.7" transform="matrix(-0.9311 0.3646 -0.3646 -0.9311 58.5284 38.4686)" class="st0" width="0.6" height="0.1"/>
	
		<rect x="24.2" y="25.6" transform="matrix(-0.9311 0.3646 -0.3646 -0.9311 56.465 40.6316)" class="st0" width="0.5" height="0.1"/>
	<path class="st0" d="M26.1,24.8C26.1,24.8,26.1,24.8,26.1,24.8l-0.8,0.8v-0.5C25.6,24.8,25.9,24.8,26.1,24.8z"/>
	<path class="st0" d="M26,24.4c-0.3,0.1-0.5,0.3-0.7,0.4c-0.1-0.1-0.5-0.3-0.8-0.9C24.1,23.1,25.8,24.2,26,24.4z"/>
	<path class="st0" d="M24.9,25.7l0,0.2c0,0-0.3,0-0.6,0.2c0,0-0.1,0.1-0.1-0.2C24.4,25.8,24.6,25.7,24.9,25.7z"/>
	<path class="st0" d="M24.7,25.3c-0.3,0.1-0.5,0.3-0.7,0.4c-0.2-0.1-0.5-0.3-0.7-0.6C22.9,24.6,24.1,25,24.7,25.3z"/>
</g>
</svg>
