<?xml version="1.0" encoding="UTF-8"?>
<!DOCTYPE svg PUBLIC "-//W3C//DTD SVG 1.1//EN" "http://www.w3.org/Graphics/SVG/1.1/DTD/svg11.dtd">
<!-- Creator: CorelDRAW X8 -->
<svg xmlns="http://www.w3.org/2000/svg" xml:space="preserve" width="512px" height="512px" version="1.1" style="shape-rendering:geometricPrecision; text-rendering:geometricPrecision; image-rendering:optimizeQuality; fill-rule:evenodd; clip-rule:evenodd"
viewBox="0 0 512 512"
 xmlns:xlink="http://www.w3.org/1999/xlink">
 <defs>
  <style type="text/css">
   <![CDATA[
    .fil0 {fill:#2B3B3C}
   ]]>
  </style>
 </defs>
 <g id="Layer_x0020_1">
  <metadata id="CorelCorpID_0Corel-Layer"/>
  <path class="fil0" d="M256 353c7,0 14,-1 21,-2l0 0c0,0 1,0 1,0 1,20 0,39 1,59 1,1 1,0 1,3 1,2 1,1 4,2 3,-6 2,-17 1,-23 0,-8 2,-32 2,-43 0,0 0,0 1,-1l0 0c5,-1 11,-3 16,-5 0,0 0,-1 0,-1 3,-1 3,3 3,6 2,22 -3,94 0,96 0,3 1,4 3,6l1 -1c0,-2 0,-1 2,-1 0,-2 -1,-2 1,-2 1,-22 0,-71 0,-99 0,-8 0,-9 2,-11 0,0 0,0 1,0 10,-7 20,-15 28,-25l0 0c1,0 2,0 2,1 0,20 1,30 1,50l1 34c1,19 -6,44 4,41 -1,-4 2,-9 0,-13 -2,-9 1,-23 1,-33 0,-12 -1,-57 1,-82 1,-4 0,-7 1,-9 0,-3 1,-5 1,-6 2,-3 6,-8 6,-11l0 0c3,-6 4,-11 6,-17l0 0c1,0 2,-2 3,-3 2,-3 6,-6 4,-9 -1,-1 -1,-4 -1,-5 0,-4 -1,-3 -2,-6 0,0 0,-1 0,-2 0,-2 0,-4 0,-5 0,-47 -28,-88 -68,-107 -1,3 -2,6 -3,9 37,17 62,54 62,98 0,59 -48,108 -108,108 -44,0 -81,-26 -98,-63l0 0 -4 0c-1,0 0,1 -2,0 -2,-1 0,-7 0,-8 0,0 0,-2 0,-2 0,-2 0,-2 1,-4l0 0c-3,-10 -5,-20 -5,-31 0,-12 2,-23 5,-34 -2,0 -6,0 -7,0 0,0 -1,0 -2,0 -3,10 -5,22 -5,33 1,4 1,1 2,3 0,1 1,1 1,2l1 3 -1 2c0,2 0,4 0,6 0,2 0,2 1,2 0,0 0,-1 1,0 0,0 0,1 0,1 1,1 1,1 2,1l0 2c1,0 0,0 0,1 -1,0 -2,0 -3,1 0,0 -1,1 -1,2 2,12 7,24 14,35 1,4 1,13 1,13 0,3 0,5 1,8 1,1 1,1 1,2 1,8 2,10 2,15 0,6 2,11 1,18 0,7 2,7 2,13l1 7c1,7 0,29 0,38 0,6 0,18 0,28 0,5 1,10 -1,12 -1,4 0,8 1,11 0,3 2,5 3,6 1,0 3,1 5,-2 2,-4 2,-7 2,-11 0,-4 -1,-3 -1,-4 0,-2 -1,-3 -1,-6l0 -77c-1,-8 1,-27 1,-34l1 -10c0,-1 2,-1 3,0l0 0c9,8 19,15 30,20 11,5 5,5 8,27 0,3 2,3 2,7 0,14 1,30 2,44 1,21 0,86 0,65l0 0c1,11 -5,18 3,26 11,0 5,-19 5,-27 0,-14 -3,-105 4,-120l1 -2c0,-3 1,-8 3,-10 0,-1 2,-2 3,-2l0 0c6,1 11,2 17,2l0 0zm-102 -239l-13 -16c-4,3 -8,7 -12,10 -3,4 -7,8 -10,12l16 13c6,-6 13,-13 19,-19zm12 10l-25 -31c-10,8 -19,17 -27,27l30 25c7,-8 14,-15 22,-21zm-54 53c3,-8 7,-16 12,-24l-20 -13c-3,5 -5,9 -8,14 -2,5 -4,10 -6,14l22 9 0 0zm24 -20l-33 -21c-7,11 -13,22 -18,34l37 14c3,-9 8,-18 14,-27l0 0zm131 -85l0 -15c5,0 11,0 16,1 5,1 10,2 15,3l-4 15c-9,-2 -18,-4 -27,-4l0 0zm-5 20l2 -39c13,1 26,3 38,6l-10 38c-9,-3 -19,-4 -30,-5zm56 -11l4 -12c5,2 10,4 15,6 4,3 9,5 13,8l-7 11c-8,-5 -17,-9 -25,-13l0 0zm-11 20l13 -37c13,5 24,11 35,18l-21 33c-9,-6 -18,-10 -27,-14zm57 6l7 -9c4,3 8,7 12,10 3,4 7,8 10,12l-9 7c-6,-7 -13,-14 -20,-20zm-18 17l24 -31c11,8 20,17 28,27l-30 25c-7,-8 -14,-15 -22,-21zm57 20l5 -4c3,5 5,9 8,14 2,5 4,10 6,14l-6 3c-4,-10 -8,-19 -13,-27l0 0zm-27 13l33 -21c7,11 13,22 18,34l-37 14c-3,-9 -8,-18 -14,-27l0 0zm49 37l5 -1c1,5 3,10 3,15 1,5 2,10 2,16l-5 0c-1,-10 -2,-20 -5,-30l0 0zm-30 4l38 -10c3,13 5,26 6,39l-40 2c0,-11 -2,-21 -4,-31zm37 51l3 0c0,5 -1,10 -2,15 -1,6 -2,11 -3,16l-3 -1c2,-10 4,-20 5,-30l0 0zm-33 -5l40 2c-1,13 -3,26 -7,38l-38 -10c3,-10 5,-20 5,-30zm-9 44l36 14c-4,12 -10,24 -18,34l-32 -21c5,-9 10,-18 14,-27l0 0zm-144 -214l-1 -17c-5,0 -11,0 -16,1 -5,1 -10,2 -15,3l4 17c9,-2 18,-3 28,-4l0 0zm4 18l-2 -39c-13,1 -26,3 -38,6l10 38c9,-3 19,-4 30,-5zm-54 -5l-6 -18c-5,2 -10,4 -15,6 -4,3 -9,5 -13,8l10 16c8,-4 16,-8 24,-12l0 0zm9 14l-13 -37c-13,5 -24,11 -35,18l21 33c9,-6 18,-10 27,-14zm-96 99l-27 -7c-1,5 -3,10 -3,15 -1,5 -2,10 -2,16l28 1c0,-9 2,-17 4,-25l0 0zm8 -2l-38 -10c-3,13 -5,26 -6,39l40 2c0,-11 2,-21 4,-31zm-10 49l-30 2c0,5 1,10 2,15 1,6 2,11 3,16l29 -8c-2,-8 -3,-17 -4,-25l0 0zm6 -3l-40 2c1,13 3,26 7,38l38 -10c-3,-10 -5,-20 -5,-30zm7 48l-30 12c2,5 4,9 7,14 2,5 5,9 8,14l27 -18c-3,-4 -5,-7 -7,-11 -1,-3 -3,-7 -5,-11zm2 -4l-36 14c4,12 10,24 18,34l32 -21c-5,-9 -10,-18 -14,-27l0 0zm330 -12l6 -7c2,-11 3,-22 3,-33 0,-12 -1,-23 -3,-34l-6 -6c2,13 4,26 4,40 0,13 -2,27 -4,40zm14 -15l26 -25 -26 -26c1,9 2,17 2,26 0,8 -1,17 -2,25zm-170 -221l-6 -6c-11,-2 -22,-3 -34,-3 -12,0 -23,1 -34,3l-6 6c13,-3 26,-4 40,-4 14,0 27,1 40,4zm-15 -15l-25 -25 -25 25c8,-1 16,-1 25,-1 9,0 17,0 25,1zm-221 171l-6 6c-2,11 -3,22 -3,34 0,11 1,22 3,33l6 7c-2,-13 -4,-27 -4,-40 0,-14 2,-27 4,-40zm-14 14l-26 26 26 25c-1,-8 -2,-17 -2,-25 0,-9 1,-17 2,-26zm247 76c1,-1 2,-3 3,-4 3,-4 1,1 0,3 0,0 0,1 -1,3l18 12 4 -4c0,-3 0,-5 2,-10 0,-3 1,-11 2,-11 0,0 0,5 0,9 0,3 -1,5 -1,7l13 -13 -77 -136 -77 136 20 22 14 -10c-2,-2 -4,-6 -1,-4 0,0 2,1 4,3l30 -21 -29 0 39 -67 39 67 -29 0 27 18 0 0zm6 -159c-1,-1 -3,-1 -4,-2 0,1 0,1 0,1 -1,1 -4,4 -6,7 1,0 2,0 4,1 0,-1 1,-1 1,-2 2,-2 2,-2 4,-4 0,-1 0,-1 1,-1zm-10 -4c-2,0 -5,-1 -7,-2 -3,3 -6,5 -8,8 3,0 6,1 8,2 1,-2 3,-3 3,-3 2,-2 3,-3 4,-5zm-16 -3c-5,-1 -11,-1 -17,-1 -27,0 -52,9 -72,24 -1,3 -3,6 -3,7 -2,4 -3,6 -4,9 -1,3 -1,3 -2,5 20,-22 49,-37 81,-37 4,0 7,1 11,1 1,-2 4,-5 6,-8zm-117 75c0,-1 1,-2 1,-3 0,0 0,0 0,-1 -2,-2 -4,-3 -4,-6 0,-1 -1,-1 -2,-2 0,1 -1,2 -1,3 0,1 0,1 0,1 1,1 2,1 2,3 1,1 2,2 2,3 1,0 1,1 2,2zm-10 1c-1,1 -1,3 -2,4 3,0 10,0 9,0 -3,-1 -5,-2 -7,-4l0 0zm14 -12c0,-2 -1,-11 3,-11 0,0 4,0 3,-1 0,0 3,-9 4,-11 0,0 1,-4 1,-6l1 -1c-8,8 -14,16 -19,26 2,0 4,1 5,2 1,0 1,1 2,2l0 0zm185 62c0,0 -5,2 -4,-1 0,0 6,-5 6,-2 0,1 2,2 -1,3 0,0 -1,0 -1,0zm-9 -33c-1,1 -5,3 -5,3 -3,-2 5,-2 3,-6 -1,-1 -4,-3 -2,-4 2,-1 3,-1 4,-1 1,-1 1,-6 6,-4 1,0 3,3 0,4 -2,0 -2,4 -1,5 2,4 0,3 -4,3 -1,0 -1,0 -1,0zm0 16c-2,1 -6,0 -3,-2 2,-1 4,-5 6,-2 1,1 -1,3 -2,3 0,1 0,1 -1,1zm50 4c0,-3 0,-3 0,-6 0,-1 -1,-6 1,-4 1,1 2,4 2,6 1,3 2,5 0,7 -1,1 -3,1 -3,-3zm2 22c1,-2 1,-3 2,-4 1,-1 4,-7 1,-5 -1,0 -1,1 -2,2 -2,0 -3,3 -3,5 1,1 0,2 1,2 0,1 1,0 1,0zm-7 -12c0,0 0,0 0,0 -1,0 0,1 0,1 3,-2 2,-4 0,-1zm-182 21c-2,-4 -2,-3 -4,-2 -1,1 -1,2 0,4 0,0 7,10 7,8 1,-2 -2,-4 -3,-8 0,0 0,-2 0,-2zm-5 6c0,0 0,-1 -1,-1 -1,-1 -2,-2 -2,1 0,1 1,1 2,2 1,1 2,4 3,5 0,1 4,7 4,3 -1,-2 -3,-3 -4,-6 -1,-2 -1,-3 -2,-4zm-3 6c0,0 -2,-4 -3,-2 -1,0 0,1 0,2 1,1 2,2 3,3 0,0 1,1 1,2 1,1 2,3 2,1 0,-1 0,-3 -1,-3 -1,-1 -2,-2 -2,-3zm65 58c54,0 98,-44 98,-98 0,-23 -8,-44 -21,-60 -2,0 -6,-1 -7,1 -5,6 -4,-1 -5,-2 -6,-2 0,-8 -3,-9 -9,-5 -5,-6 -4,-10 -17,-11 -36,-18 -58,-18 -54,0 -98,44 -98,98 0,8 1,16 3,24l0 0c4,-2 0,-1 5,-1 3,0 -1,1 5,1l2 -5c3,0 2,1 2,-1l1 0 1 1 0 8 -3 2c-3,5 -3,1 -3,8l-5 0 0 0c14,36 49,61 90,61l0 0z"/>
 </g>
</svg>
