<?xml version="1.0" encoding="UTF-8"?>
<!DOCTYPE svg PUBLIC "-//W3C//DTD SVG 1.1//EN" "http://www.w3.org/Graphics/SVG/1.1/DTD/svg11.dtd">
<!-- Creator: CorelDRAW X8 -->
<svg xmlns="http://www.w3.org/2000/svg" xml:space="preserve" width="512px" height="512px" version="1.1" style="shape-rendering:geometricPrecision; text-rendering:geometricPrecision; image-rendering:optimizeQuality; fill-rule:evenodd; clip-rule:evenodd"
viewBox="0 0 512 512"
 xmlns:xlink="http://www.w3.org/1999/xlink"
 xmlns:dc="http://purl.org/dc/elements/1.1/"
 xmlns:cc="http://creativecommons.org/ns#"
 xmlns:rdf="http://www.w3.org/1999/02/22-rdf-syntax-ns#"
 xmlns:svg="http://www.w3.org/2000/svg"
 xmlns:sodipodi="http://sodipodi.sourceforge.net/DTD/sodipodi-0.dtd"
 xmlns:inkscape="http://www.inkscape.org/namespaces/inkscape"
 inkscape:version="1.0.1 (3bc2e813f5, 2020-09-07)"
 sodipodi:docname="Season 7.svg">
 <defs>
  <style type="text/css">
   <![CDATA[
    .fil0 {fill:#2B3B3C}
   ]]>
  </style>
 </defs>
 <g id="Layer_x0020_1">
  <metadata id="CorelCorpID_0Corel-Layer"/>
  <path class="fil0" d="M189 229c-1,0 -7,5 -7,17l0 125c0,5 36,16 74,16 38,0 74,-11 74,-16l0 -125c0,-12 -6,-17 -7,-17 0,0 -4,2 -6,3 -12,6 -33,10 -61,10 -28,0 -49,-4 -61,-10 -2,-1 -6,-3 -6,-3zm67 34l-16 28 -16 26 0 0 -16 28 5 6 0 0 8 9 29 -20 -17 0 8 -13 15 -27 0 0 0 0 0 0 0 0 15 27 8 13 -17 0 29 20 8 -9 0 0 5 -6 -16 -28 0 0 -16 -26 -16 -28 0 0zm29 -1l-9 12 16 22 15 -7 -8 -6 3 -13 -12 0 -5 -8 0 0zm-70 -19c1,0 3,1 3,3 0,2 -2,4 -3,4 -2,0 -4,-2 -4,-4 0,-2 2,-3 4,-3zm0 128c2,0 3,1 3,3 0,2 -1,3 -3,3 -2,0 -3,-1 -3,-3 0,-2 1,-3 3,-3zm55 3c-1,0 -2,2 -2,4 0,2 1,3 2,3 2,0 4,-1 4,-3 0,-2 -2,-4 -4,-4zm49 -8c-2,0 -4,1 -4,3 0,2 2,3 4,3 1,0 3,-1 3,-3 0,-2 -2,-3 -3,-3zm-22 5c-2,0 -3,1 -3,3 0,2 1,3 3,3 2,0 3,-1 3,-3 0,-2 -1,-3 -3,-3zm-55 3c1,0 3,2 3,4 0,2 -2,3 -3,3 -2,0 -4,-1 -4,-3 0,-2 2,-4 4,-4zm-49 -8c2,0 4,1 4,3 0,2 -2,3 -4,3 -1,0 -3,-1 -3,-3 0,-2 2,-3 3,-3zm126 -127c-2,0 -4,1 -4,3 0,2 2,4 4,4 2,0 3,-2 3,-4 0,-2 -1,-3 -3,-3zm-49 7c-1,0 -3,2 -3,4 0,2 2,3 3,3 2,0 4,-1 4,-3 0,-2 -2,-4 -4,-4zm27 -3c-1,0 -3,1 -3,3 0,2 2,4 3,4 2,0 4,-2 4,-4 0,-2 -2,-3 -4,-3zm-104 -4c2,0 4,1 4,3 0,2 -2,4 -4,4 -2,0 -3,-2 -3,-4 0,-2 1,-3 3,-3zm49 7c1,0 3,2 3,4 0,2 -2,3 -3,3 -2,0 -4,-1 -4,-3 0,-2 2,-4 4,-4z"/>
  <sodipodi:namedview id="base" pagecolor="#ffffff" bordercolor="#666666" borderopacity="1.0" inkscape:pageopacity="0.0" inkscape:pageshadow="2" inkscape:zoom="2" inkscape:cx="30.281841" inkscape:cy="122.22079" inkscape:document-units="mm" inkscape:current-layer="layer1" inkscape:document-rotation="0" showgrid="false" fit-margin-top="0" fit-margin-left="0" fit-margin-right="0" fit-margin-bottom="0" inkscape:window-width="1366" inkscape:window-height="705" inkscape:window-x="-6" inkscape:window-y="760" inkscape:window-maximized="1"/>
  <path class="fil0" d="M229 21c-2,0 -4,-4 -11,-4 -12,0 -12,13 -14,13 -1,0 -4,-4 -10,-4 -6,0 -20,9 -20,24 0,10 9,18 14,18 4,0 7,-2 8,-2 1,0 1,2 1,4 0,6 5,16 16,16 8,0 14,-6 15,-6 2,0 0,6 4,6 3,0 4,-4 5,-4 2,0 5,38 0,38 -3,0 -4,-4 -5,-4 -1,0 -1,0 -1,0 0,3 7,17 9,17 6,0 5,-20 7,-20 3,0 2,6 4,6 2,0 1,-17 5,-17 4,0 3,17 5,17 2,0 1,-6 4,-6 2,0 1,20 7,20 2,0 9,-14 9,-17 0,0 0,0 -1,0 -1,0 -2,4 -5,4 -5,0 -2,-38 0,-38 1,0 2,4 5,4 4,0 2,-6 4,-6 1,0 7,6 15,6 11,0 16,-10 16,-16 0,-2 0,-4 1,-4 1,0 4,2 8,2 5,0 14,-8 14,-18 0,-15 -14,-24 -20,-24 -6,0 -9,4 -10,4 -2,0 -2,-13 -14,-13 -7,0 -9,4 -11,4 -1,0 -1,-2 -1,-3 0,-5 -9,-18 -26,-18 -17,0 -26,13 -26,18 0,1 0,3 -1,3z"/>
  <path class="fil0" d="M256 392c-27,-1 -46,-4 -71,-11 12,25 39,57 71,57 32,0 59,-32 71,-57 -25,7 -44,10 -71,11z"/>
  <path class="fil0" d="M256 195c-17,0 -27,-5 -27,-5 0,0 -35,36 -35,36 0,3 28,11 62,11 34,0 62,-8 62,-11 0,0 -35,-36 -35,-36 0,0 -10,5 -27,5z"/>
  <path class="fil0" d="M256 146c-19,0 -21,-4 -23,-4 -2,0 -3,1 -3,3l0 39c0,1 15,7 26,7 11,0 26,-6 26,-7l0 -39c0,-2 -1,-3 -3,-3 -2,0 -4,4 -23,4zm-16 22c0,-1 0,-2 1,-2 5,0 9,1 15,1 6,0 10,-1 15,-1 1,0 1,1 1,2 0,2 -9,4 -16,4 -7,0 -16,-2 -16,-4l0 0zm0 -13c0,0 0,-1 1,-1 5,0 9,1 15,1 6,0 10,-1 15,-1 1,0 1,1 1,1 0,3 -9,5 -16,5 -7,0 -16,-2 -16,-5l0 0z"/>
  <path class="fil0" d="M217 176c0,3 0,7 0,9 0,2 -15,18 -15,21 0,1 2,2 2,1l21 -23 0 -47c-10,-8 -20,-17 -31,-26l0 49c0,0 23,16 23,16l0 0z"/>
  <polygon class="fil0" points="204,449 217,432 219,432 219,433 212,444 231,444 229,461 246,449 256,476 266,449 283,461 281,444 300,444 293,433 293,432 295,432 308,449 287,449 290,474 269,459 256,512 243,459 222,474 225,449 204,449 "/>
  <polygon class="fil0" points="162,411 163,410 182,394 184,394 187,399 188,401 169,417 167,417 162,411 "/>
  <polygon class="fil0" points="192,417 192,416 196,412 198,412 203,418 203,420 200,423 198,423 192,417 "/>
  <polygon class="fil0" points="178,429 178,428 180,426 182,426 187,432 188,435 186,436 184,436 "/>
  <polygon class="fil0" points="122,418 123,416 140,407 142,405 142,403 143,400 173,379 174,378 177,378 177,381 179,386 181,389 157,409 156,411 167,423 168,423 190,404 191,404 193,407 194,408 172,428 172,429 179,436 179,438 172,444 171,445 171,452 170,452 168,452 164,446 136,423 133,422 127,422 125,421 122,418 "/>
  <path class="fil0" d="M295 176c0,3 0,7 0,9 0,2 15,18 15,21 0,1 -2,2 -2,1l-21 -23 0 -47c10,-8 20,-17 31,-26l0 49c0,0 -23,16 -23,16l0 0z"/>
  <polygon class="fil0" points="350,411 349,410 330,394 328,394 325,399 324,401 343,417 345,417 350,411 "/>
  <polygon class="fil0" points="320,417 320,416 316,412 314,412 309,418 309,420 312,423 314,423 320,417 "/>
  <polygon class="fil0" points="334,429 334,428 332,426 330,426 325,432 324,435 326,436 328,436 "/>
  <polygon class="fil0" points="390,418 389,416 372,407 370,405 370,403 369,400 339,379 338,378 335,378 335,381 333,386 331,389 355,409 356,411 345,423 344,423 322,404 321,404 319,407 318,408 340,428 340,429 333,436 333,438 340,444 341,445 341,452 342,452 344,452 348,446 376,423 379,422 385,422 387,421 390,418 "/>
  <path class="fil0" d="M128 240c0,5 1,10 3,15 2,3 4,6 4,7 1,3 -1,3 -2,3 -8,-2 -14,-4 -19,-9 -5,-5 -6,-11 -8,-17 -1,-7 -4,-23 -7,-29 -2,-5 -4,-8 -7,-11 -5,-4 -8,-6 -14,-9 4,6 11,15 12,23 1,4 1,12 0,18 0,6 0,20 1,27 1,7 2,11 7,17 7,8 20,19 28,27 3,2 4,2 4,4 -1,3 -8,2 -10,2 -12,-2 -19,-10 -26,-12 7,11 8,16 19,26 8,7 16,8 27,10l15 3c4,1 3,4 0,7 -4,4 -10,7 -16,10 6,2 11,3 17,3 4,0 11,0 15,-2 0,0 1,-1 2,-2l0 -6 -8 -1c-4,0 -1,-2 2,-7 1,-2 4,-8 4,-10 0,0 -1,-1 -3,-2 -2,0 -6,-1 -9,-2 -3,-1 -6,-1 -8,-2 -9,-2 -15,-3 -2,-8 4,-2 4,-2 1,-5 -8,-8 -16,-14 -23,-22 -3,-4 -5,-7 1,-5 7,2 15,6 22,8 11,5 5,1 2,-7 -2,-3 -2,-5 2,-2 2,1 3,2 5,4l12 10c1,1 1,1 2,2l0 -15c-2,-2 -5,-5 -7,-7 -8,-8 -19,-14 -28,-22 -5,-5 -8,-9 -10,-12z"/>
  <path class="fil0" d="M126 194l17 -17c0,0 0,-1 0,-1l-8 -8c0,0 -1,0 -1,0l-17 18c-1,0 -1,1 0,1l7 7c1,1 1,1 2,0z"/>
  <path class="fil0" d="M138 189l14 13 0 0 11 12c0,0 1,0 1,0l6 -6c1,-1 1,-1 0,-2l-7 -8 -2 -2c0,0 0,-2 -1,-2l-13 -14c-1,0 -1,0 -1,0l-8 7c0,1 0,1 0,2l0 0 0 0z"/>
  <path class="fil0" d="M168 198l5 5c1,0 1,0 2,0l4 -5c1,0 1,0 0,-1l-7 -7c0,0 -1,0 -1,0l-2 2c0,0 -1,5 -1,6l0 0z"/>
  <path class="fil0" d="M151 175l14 14c0,1 1,1 1,0l5 -4c1,0 3,0 3,-1l2 -1c0,-1 0,-1 0,-1l-25 -25c0,-1 -1,0 -1,1 0,4 3,10 3,13 -1,0 -2,2 -2,3 0,1 0,1 0,1l0 0z"/>
  <path class="fil0" d="M179 190l4 -4c0,0 0,-1 0,-1l-1 -1c-1,-1 -1,-1 -2,0l-4 4c0,0 0,1 0,1l1 1c1,1 1,1 2,0z"/>
  <path class="fil0" d="M183 195l3 -4c0,0 0,0 0,-1l-1 -1c0,0 -1,0 -1,0l-3 4c-1,0 -1,1 0,1l0 1c1,0 1,0 2,0z"/>
  <path class="fil0" d="M171 231l24 -24 1 0c0,-1 0,-6 0,-6l-5 -5c-1,-1 -1,-1 -1,0l-27 26c0,1 0,1 0,2l7 7c0,0 1,0 1,0l0 0z"/>
  <path class="fil0" d="M138 166l7 7c0,0 1,0 1,0l1 -1c1,-1 1,-1 1,-1l-2 -17 0 -1 1 -2c1,0 1,-1 0,-1l-7 -8c-2,-1 -3,-1 -4,0l-9 9c-1,0 -1,1 0,1l9 10 1 3c0,1 0,1 1,1l0 0z"/>
  <path class="fil0" d="M86 111l36 36c0,1 1,1 1,0l7 -6c0,-1 0,-1 0,-2l-36 -36c0,0 -1,0 -1,0l-7 7c0,0 0,1 0,1z"/>
  <path class="fil0" d="M58 83l15 14c0,1 0,1 1,0l5 -5c1,-1 1,-1 0,-1l-14 -15c-1,0 -1,0 -1,0l-6 6c0,0 0,0 0,1z"/>
  <path class="fil0" d="M80 105l10 -10c0,0 0,-1 0,-1l-3 -3c0,0 -1,0 -1,0l-10 11c0,0 0,1 0,1l3 3c0,0 1,0 1,-1z"/>
  <path class="fil0" d="M85 108l6 -6c1,-1 1,-1 0,-2l0 0c0,0 -1,0 -1,0l-7 6c0,1 0,1 0,2l1 0c0,0 0,0 1,0z"/>
  <path class="fil0" d="M100 150l23 22c1,1 1,1 2,0l6 -6c0,0 0,-1 0,-1l-23 -22c0,-1 -1,-1 -1,0l-7 6c0,1 0,1 0,1z"/>
  <path class="fil0" d="M386 194l-17 -17c0,0 0,-1 0,-1l8 -8c0,0 1,0 1,0l17 18c1,0 1,1 0,1l-7 7c-1,1 -1,1 -2,0z"/>
  <path class="fil0" d="M374 189l-14 13 0 0 -11 12c0,0 -1,0 -1,0l-6 -6c-1,-1 -1,-1 0,-2l7 -8 2 -2c0,0 0,-2 1,-2l13 -14c1,0 1,0 1,0l8 7c0,1 0,1 0,2l0 0 0 0z"/>
  <path class="fil0" d="M344 198l-5 5c-1,0 -1,0 -2,0l-4 -5c-1,0 -1,0 0,-1l7 -7c0,0 1,0 1,0l2 2c0,0 1,5 1,6l0 0z"/>
  <path class="fil0" d="M361 175l-14 14c0,1 -1,1 -1,0l-5 -4c-1,0 -3,0 -3,-1l-2 -1c0,-1 0,-1 0,-1l25 -25c0,-1 1,0 1,1 0,4 -3,10 -3,13 1,0 2,2 2,3 0,1 0,1 0,1l0 0z"/>
  <path class="fil0" d="M333 190l-4 -4c0,0 0,-1 0,-1l1 -1c1,-1 1,-1 2,0l4 4c0,0 0,1 0,1l-1 1c-1,1 -1,1 -2,0z"/>
  <path class="fil0" d="M329 195l-3 -4c0,0 0,0 0,-1l1 -1c0,0 1,0 1,0l3 4c1,0 1,1 0,1l0 1c-1,0 -1,0 -2,0z"/>
  <path class="fil0" d="M341 231l-24 -24 -1 0c0,-1 0,-6 0,-6l5 -5c1,-1 1,-1 1,0l27 26c0,1 0,1 0,2l-7 7c0,0 -1,0 -1,0l0 0z"/>
  <path class="fil0" d="M374 166l-7 7c0,0 -1,0 -1,0l-1 -1c-1,-1 -1,-1 -1,-1l2 -17 0 -1 -1 -2c-1,0 -1,-1 0,-1l7 -8c2,-1 3,-1 4,0l9 9c1,0 1,1 0,1l-9 10 -1 3c0,1 0,1 -1,1l0 0z"/>
  <path class="fil0" d="M426 111l-36 36c0,1 -1,1 -1,0l-7 -6c0,-1 0,-1 0,-2l36 -36c0,0 1,0 1,0l7 7c0,0 0,1 0,1z"/>
  <path class="fil0" d="M454 83l-15 14c0,1 0,1 -1,0l-5 -5c-1,-1 -1,-1 0,-1l14 -15c1,0 1,0 1,0l6 6c0,0 0,0 0,1z"/>
  <path class="fil0" d="M432 105l-10 -10c0,0 0,-1 0,-1l3 -3c0,0 1,0 1,0l10 11c0,0 0,1 0,1l-3 3c0,0 -1,0 -1,-1z"/>
  <path class="fil0" d="M427 108l-6 -6c-1,-1 -1,-1 0,-2l0 0c0,0 1,0 1,0l7 6c0,1 0,1 0,2l-1 0c0,0 0,0 -1,0z"/>
  <path class="fil0" d="M412 150l-23 22c-1,1 -1,1 -2,0l-6 -6c0,0 0,-1 0,-1l23 -22c0,-1 1,-1 1,0l7 6c0,1 0,1 0,1z"/>
  <path class="fil0" d="M384 240c0,5 -1,10 -3,15 -2,3 -4,6 -4,7 -1,3 1,3 2,3 8,-2 14,-4 19,-9 5,-5 6,-11 8,-17 1,-7 4,-23 7,-29 2,-5 4,-8 7,-11 5,-4 8,-6 14,-9 -4,6 -11,15 -12,23 -1,4 -1,12 0,18 0,6 0,20 -1,27 -1,7 -2,11 -7,17 -7,8 -20,19 -28,27 -3,2 -4,2 -4,4 1,3 8,2 10,2 12,-2 19,-10 26,-12 -7,11 -8,16 -19,26 -8,7 -16,8 -27,10l-15 3c-4,1 -3,4 0,7 4,4 10,7 16,10 -6,2 -11,3 -17,3 -4,0 -11,0 -15,-2 0,0 -1,-1 -2,-2l0 -6 8 -1c4,0 1,-2 -2,-7 -1,-2 -4,-8 -4,-10 0,0 1,-1 3,-2 2,0 6,-1 9,-2 3,-1 6,-1 8,-2 9,-2 15,-3 2,-8 -4,-2 -4,-2 -1,-5 8,-8 16,-14 23,-22 3,-4 5,-7 -1,-5 -7,2 -15,6 -22,8 -11,5 -5,1 -2,-7 2,-3 2,-5 -2,-2 -2,1 -3,2 -5,4l-12 10c-1,1 -1,1 -2,2l0 -15c2,-2 5,-5 7,-7 8,-8 19,-14 28,-22 5,-5 8,-9 10,-12z"/>
  <polygon class="fil0" points="325,419 322,419 317,425 316,427 319,430 321,430 327,424 327,422 324,419 "/>
  <polygon class="fil0" points="187,419 190,419 195,425 196,427 193,430 191,430 185,424 185,422 188,419 "/>
  <path class="fil0" d="M197 199l-4 -4c0,0 0,-1 0,-1l0 -1c1,-1 1,-1 2,0l4 4c0,0 0,1 0,1l0 1c-1,1 -1,1 -2,0z"/>
  <path class="fil0" d="M315 199l4 -4c0,0 0,-1 0,-1l0 -1c-1,-1 -1,-1 -2,0l-4 4c0,0 -1,1 -1,1l1 1c1,1 1,1 2,0z"/>
 </g>
</svg>
